<?xml version="1.0" encoding="UTF-8"?>
<svg xmlns="http://www.w3.org/2000/svg" xmlns:xlink="http://www.w3.org/1999/xlink" width="16pt" height="16pt" viewBox="0 0 16 16" version="1.1">
<g id="surface1">
<path style=" stroke:none;fill-rule:nonzero;fill:rgb(100%,100%,100%);fill-opacity:1;" d="M 4.199219 3 L 5.429688 12 L 3.148438 12 L 3.03125 10 L 2.238281 10 L 2.109375 12 L 0.0117188 12 L 1.101562 3 Z M 3 9 C 2.890625 7.980469 2.78125 6.71875 2.671875 5.21875 C 2.460938 6.941406 2.320312 8.199219 2.261719 9 Z M 3 9 "/>
<path style=" stroke:none;fill-rule:nonzero;fill:rgb(100%,100%,100%);fill-opacity:1;" d="M 11 6 L 9 6 L 9 5.359375 C 9 5.058594 8.960938 4.878906 8.921875 4.789062 C 8.828125 4.53125 8.621094 4.449219 8.5 4.449219 C 8.371094 4.449219 8.230469 4.511719 8.160156 4.621094 C 8.089844 4.730469 8.058594 4.898438 8.058594 5.121094 C 8.058594 5.410156 8.101562 5.789062 8.179688 5.929688 C 8.25 6.078125 8.460938 6.261719 8.800781 6.460938 C 9.78125 7.050781 10.398438 7.539062 10.648438 7.921875 C 10.898438 8.308594 11 8.539062 11 9.609375 C 11 10.230469 10.960938 10.679688 10.820312 10.96875 C 10.679688 11.261719 10.410156 11.511719 10 11.699219 C 9.601562 11.898438 9.039062 12 8.5 12 C 7.910156 12 7.320312 11.890625 6.898438 11.660156 C 6.480469 11.429688 6.308594 11.140625 6.148438 10.800781 C 5.988281 10.449219 6 9.929688 6 9.289062 L 6 9 L 8 9 L 8 9.769531 C 8 10.089844 8.03125 10.269531 8.089844 10.371094 C 8.148438 10.460938 8.28125 10.53125 8.441406 10.53125 C 8.589844 10.53125 8.699219 10.46875 8.769531 10.359375 C 8.839844 10.238281 8.878906 10.070312 8.878906 9.839844 C 8.878906 9.328125 8.808594 9.160156 8.679688 9 C 8.53125 8.839844 8.191406 8.578125 7.648438 8.21875 C 7.101562 7.851562 6.738281 7.578125 6.558594 7.410156 C 6.378906 7.238281 6.238281 7.011719 6.121094 6.71875 C 6 6.421875 6 6.050781 6 5.589844 C 6 4.929688 6.078125 4.28125 6.25 3.96875 C 6.410156 3.660156 6.679688 3.421875 7.050781 3.25 C 7.421875 3.078125 7.980469 2.988281 8.5 2.988281 C 9.070312 2.988281 9.609375 3.078125 10.011719 3.269531 C 10.410156 3.460938 10.679688 3.699219 10.808594 3.980469 C 10.941406 4.269531 11 4.761719 11 5.449219 Z M 11 6 "/>
<path style=" stroke:none;fill-rule:nonzero;fill:rgb(100%,100%,100%);fill-opacity:1;" d="M 12 5 L 16 7.378906 L 16 8.601562 L 12 11 L 12 9.429688 L 14.46875 8 L 12 6.578125 Z M 12 5 "/>
<path style=" stroke:none;fill-rule:nonzero;fill:rgb(100%,100%,100%);fill-opacity:1;" d="M 0 13 L 16 13 L 16 14 L 0 14 Z M 0 13 "/>
</g>
</svg>
