<?xml version="1.0" encoding="utf-8"?>
<!-- Generator: Adobe Illustrator 23.1.1, SVG Export Plug-In . SVG Version: 6.00 Build 0)  -->
<svg version="1.1" id="Layer_1" xmlns="http://www.w3.org/2000/svg" xmlns:xlink="http://www.w3.org/1999/xlink" x="0px" y="0px"
	 viewBox="0 0 16 16" style="enable-background:new 0 0 16 16;" xml:space="preserve">
<style type="text/css">
	.st0{fill:#333333;}
	.st1{fill:#FFFFFF;}
	.st2{fill:none;stroke:#FFFFFF;stroke-width:0.75;stroke-miterlimit:10;}
	.st3{display:none;fill:#333333;}
</style>
<g>
	<rect class="st3" width="16" height="16"/>
	<path class="st1" d="M4.2,3l1.23,9H3.15l-0.12-2H2.24l-0.13,2H0.01L1.1,3H4.2z M3,9C2.89,7.98,2.78,6.72,2.67,5.22
		C2.46,6.94,2.32,8.2,2.26,9H3z"/>
	<path class="st1" d="M11,6H9V5.36c0-0.3-0.04-0.48-0.08-0.57C8.83,4.53,8.62,4.45,8.5,4.45c-0.13,0-0.27,0.06-0.34,0.17
		s-0.1,0.28-0.1,0.5c0,0.29,0.04,0.67,0.12,0.81C8.25,6.08,8.46,6.26,8.8,6.46c0.98,0.59,1.6,1.08,1.85,1.46
		C10.9,8.31,11,8.54,11,9.61c0,0.62-0.04,1.07-0.18,1.36c-0.14,0.29-0.41,0.54-0.82,0.73C9.6,11.9,9.04,12,8.5,12
		c-0.59,0-1.18-0.11-1.6-0.34c-0.42-0.23-0.59-0.52-0.75-0.86C5.99,10.45,6,9.93,6,9.29V9h2v0.77c0,0.32,0.03,0.5,0.09,0.6
		c0.06,0.09,0.19,0.16,0.35,0.16c0.15,0,0.26-0.06,0.33-0.17c0.07-0.12,0.11-0.29,0.11-0.52c0-0.51-0.07-0.68-0.2-0.84
		C8.53,8.84,8.19,8.58,7.65,8.22C7.1,7.85,6.74,7.58,6.56,7.41c-0.18-0.17-0.32-0.4-0.44-0.69c-0.12-0.3-0.12-0.67-0.12-1.13
		c0-0.66,0.08-1.31,0.25-1.62c0.16-0.31,0.43-0.55,0.8-0.72C7.42,3.08,7.98,2.99,8.5,2.99c0.57,0,1.11,0.09,1.51,0.28
		c0.4,0.19,0.67,0.43,0.8,0.71C10.94,4.27,11,4.76,11,5.45V6z"/>
	<path class="st1" d="M12,5l4,2.38v1.22L12,11V9.43L14.47,8L12,6.58V5z"/>
	<g>
		<rect y="13" class="st1" width="16" height="1"/>
	</g>
</g>
</svg>
