<?xml version="1.0" encoding="UTF-8" standalone="no"?>
<!-- Generated by IcoMoon.io -->

<svg
   xmlns:dc="http://purl.org/dc/elements/1.1/"
   xmlns:cc="http://creativecommons.org/ns#"
   xmlns:rdf="http://www.w3.org/1999/02/22-rdf-syntax-ns#"
   xmlns:svg="http://www.w3.org/2000/svg"
   xmlns="http://www.w3.org/2000/svg"
   xmlns:sodipodi="http://sodipodi.sourceforge.net/DTD/sodipodi-0.dtd"
   xmlns:inkscape="http://www.inkscape.org/namespaces/inkscape"
   version="1.1"
   width="14"
   height="14"
   viewBox="0 0 14 14"
   id="svg2"
   inkscape:version="0.92.0 r"
   sodipodi:docname="tutorial.svg">
  <metadata
     id="metadata10">
    <rdf:RDF>
      <cc:Work
         rdf:about="">
        <dc:format>image/svg+xml</dc:format>
        <dc:type
           rdf:resource="http://purl.org/dc/dcmitype/StillImage" />
      </cc:Work>
    </rdf:RDF>
  </metadata>
  <defs
     id="defs8" />
  <sodipodi:namedview
     pagecolor="#ffffff"
     bordercolor="#666666"
     borderopacity="1"
     objecttolerance="10"
     gridtolerance="10"
     guidetolerance="10"
     inkscape:pageopacity="0"
     inkscape:pageshadow="2"
     inkscape:window-width="1324"
     inkscape:window-height="719"
     id="namedview6"
     showgrid="true"
     inkscape:zoom="16.857143"
     inkscape:cx="6.0000001"
     inkscape:cy="6.5254238"
     inkscape:window-x="0"
     inkscape:window-y="27"
     inkscape:window-maximized="0"
     inkscape:current-layer="svg2">
    <inkscape:grid
       type="xygrid"
       id="grid4482" />
  </sodipodi:namedview>
  <path
     d="m 8,10.762712 v -1.5 q 0,-0.109 -0.07,-0.18 -0.07,-0.071 -0.18,-0.07 h -1.5 q -0.109,0 -0.18,0.07 -0.071,0.07 -0.07,0.18 v 1.5 q 0,0.109 0.07,0.18 0.07,0.071 0.18,0.07 h 1.5 q 0.109,0 0.18,-0.07 0.071,-0.07 0.07,-0.18 z m 2,-5.25 q 0,-0.688 -0.434,-1.273 -0.434,-0.585 -1.082,-0.906 -0.648,-0.321 -1.328,-0.32 -1.898,0 -2.898,1.664 -0.117,0.187 0.062,0.328 l 1.031,0.781 q 0.055,0.047 0.148,0.047 0.125,0 0.195,-0.094 0.414,-0.531 0.672,-0.719 0.266,-0.187 0.672,-0.187 0.375,0 0.668,0.203 0.293,0.203 0.293,0.461 0,0.297 -0.156,0.477 -0.156,0.18 -0.531,0.352 -0.492,0.219 -0.902,0.676 -0.41,0.457 -0.41,0.98 v 0.281 q 0,0.109 0.07,0.18 0.07,0.071 0.18,0.07 h 1.5 q 0.109,0 0.18,-0.07 0.071,-0.07 0.07,-0.18 0,-0.148 0.168,-0.387 0.168,-0.239 0.426,-0.387 0.25,-0.141 0.383,-0.223 0.133,-0.082 0.359,-0.273 0.226,-0.191 0.348,-0.375 0.122,-0.184 0.219,-0.473 0.097,-0.289 0.098,-0.633 z m 3,1.5 q 0,1.633 -0.805,3.012 -0.805,1.379 -2.184,2.184 -1.379,0.805 -3.012,0.805 -1.633,0 -3.012,-0.805 -1.379,-0.805 -2.184,-2.184 -0.805,-1.379 -0.805,-3.012 0,-1.633 0.805,-3.012 0.805,-1.379 2.184,-2.184 1.379,-0.805 3.012,-0.805 1.633,0 3.012,0.805 1.379,0.805 2.184,2.184 0.805,1.379 0.805,3.012 z"
     id="path4"
     style="fill:#69b8f7;fill-opacity:1"
     inkscape:connector-curvature="0" />
</svg>
