/* XPM */
static char * komodo_httpInspector_xpm[] = {
"16 16 121 2",
"  	c None",
". 	c #000000",
"+ 	c #262626",
"@ 	c #C5C5C5",
"# 	c #EEEEEE",
"$ 	c #EDEDED",
"% 	c #ABABAB",
"& 	c #464646",
"* 	c #687071",
"= 	c #67787C",
"- 	c #6D7B7E",
"; 	c #8C9596",
"> 	c #E3E7E9",
", 	c #FCFCFC",
"' 	c #EAEAEA",
") 	c #707070",
"! 	c #6B6E71",
"~ 	c #CCD9E8",
"{ 	c #D7E0F1",
"] 	c #B6C0DE",
"^ 	c #7385A0",
"/ 	c #5A6C7A",
"( 	c #A6AEB5",
"_ 	c #FBFBFB",
": 	c #E8E8E8",
"< 	c #C8CFD1",
"[ 	c #E3EBF2",
"} 	c #DAE4EF",
"| 	c #C6D3E6",
"1 	c #A9B9DB",
"2 	c #96A7C9",
"3 	c #6D7E94",
"4 	c #A3AAAE",
"5 	c #FAFAFA",
"6 	c #A4A4A4",
"7 	c #F2F8F6",
"8 	c #E8F0F4",
"9 	c #D5E0EC",
"0 	c #C4D1E4",
"a 	c #B3C3DE",
"b 	c #91A9BB",
"c 	c #778BB1",
"d 	c #596B7A",
"e 	c #D9DBDC",
"f 	c #E5E5E5",
"g 	c #ECF1F3",
"h 	c #E8F1F5",
"i 	c #CEDAE9",
"j 	c #CCDCE5",
"k 	c #CCD9E3",
"l 	c #B6C8D4",
"m 	c #9DB1CC",
"n 	c #657990",
"o 	c #81878A",
"p 	c #E4E4E4",
"q 	c #B8C0C6",
"r 	c #D2DEE8",
"s 	c #DAE6ED",
"t 	c #E8F1F3",
"u 	c #C2D1DE",
"v 	c #889DB4",
"w 	c #7C939C",
"x 	c #778D9D",
"y 	c #5B6467",
"z 	c #B4B4B4",
"A 	c #6B6E6F",
"B 	c #D1DCE3",
"C 	c #C3D3E0",
"D 	c #CAD8E3",
"E 	c #7E95AB",
"F 	c #99AFB6",
"G 	c #94ABAF",
"H 	c #778C96",
"I 	c #4C5459",
"J 	c #444444",
"K 	c #0C1012",
"L 	c #7C8793",
"M 	c #A8BCCB",
"N 	c #C2D1DF",
"O 	c #8CA0BC",
"P 	c #A9BCC1",
"Q 	c #8AA0A7",
"R 	c #546A76",
"S 	c #464C4E",
"T 	c #233C4A",
"U 	c #8696A3",
"V 	c #2B2E2F",
"W 	c #4A5258",
"X 	c #B5BCC5",
"Y 	c #7689A5",
"Z 	c #65788C",
"` 	c #556470",
" .	c #3D4347",
"..	c #233C49",
"+.	c #ADC0D8",
"@.	c #B3C6D6",
"#.	c #5A6771",
"$.	c #141A1F",
"%.	c #020203",
"&.	c #000101",
"*.	c #202020",
"=.	c #203A47",
"-.	c #6C8A9E",
";.	c #5A7A99",
">.	c #6D87A3",
",.	c #46617B",
"'.	c #909DA4",
").	c #1F3845",
"!.	c #686868",
"~.	c #343434",
"{.	c #244049",
"].	c #3C586E",
"^.	c #617784",
"/.	c #7E8D9A",
"(.	c #182E3B",
"_.	c #797979",
":.	c #3A3A3A",
"<.	c #213747",
"[.	c #162E38",
"}.	c #19323E",
"|.	c #1F1F1F",
"        . . . .                 ",
"    . + @ # $ % & .             ",
"  . * = - ; > , ' ) .           ",
"  ! ~ { ] ^ / ( _ : &           ",
". < [ } | 1 2 3 4 5 6 .         ",
". 7 8 9 0 a b c d e f .         ",
". g h i j k l m n o p .         ",
". q r s t u v w x y z .         ",
"  A B C D E F G H I J           ",
"  K L M N O P Q R S .           ",
"T U V W X Y Z `  .. . . .       ",
"..+.@.#.$.%.&..     *.*.. .     ",
"=.-.;.>.,.'.).      . !.~.. .   ",
"  {.].^./.(.          . _.:.. . ",
"    <.[.}.              . !.|.. ",
"                          . .   "};
