/* XPM */
static char *objectbrowser[] = {
/* columns rows colors chars-per-pixel */
"16 16 184 2",
"   c black",
".  c #00000A",
"X  c #090701",
"o  c #0D0500",
"O  c #182452",
"+  c #24367B",
"@  c #590000",
"#  c #2C4094",
"$  c #364EAD",
"%  c #2D4EC6",
"&  c #365CCB",
"*  c #3853C0",
"=  c #3953C0",
"-  c #3957C2",
";  c #3A54C1",
":  c #3B56C1",
">  c #3858C2",
",  c #3A59C3",
"<  c #3B58C2",
"1  c #3B59C3",
"2  c #3F5CC5",
"3  c #736C9D",
"4  c #7774A2",
"5  c #4B62C3",
"6  c #496BCC",
"7  c #446AD8",
"8  c #4977D2",
"9  c #4D77D1",
"0  c #4D77D2",
"q  c #4D79D3",
"w  c #4E7DD5",
"e  c #4F7FD5",
"r  c #4978DE",
"t  c #537DD3",
"y  c #547FD4",
"u  c #557FD4",
"i  c #4B7DE1",
"p  c #4F83D6",
"a  c #5084DB",
"s  c #548CDB",
"d  c #568EDD",
"f  c #5886D8",
"g  c #598ADA",
"h  c #588DDB",
"j  c #5D94DF",
"k  c #5E97DF",
"l  c #4E82E3",
"z  c #5087E6",
"x  c #508DE5",
"c  c #528CE8",
"v  c #5791E0",
"b  c #5491EA",
"n  c #5D9CE5",
"m  c #589CEA",
"M  c #5099F3",
"N  c #618EDA",
"B  c #7488D5",
"V  c #759ADD",
"C  c #85231F",
"Z  c #9A3E00",
"A  c #882520",
"S  c #8F2923",
"D  c #8F2C26",
"F  c #8C3032",
"G  c #902B24",
"H  c #902C26",
"J  c #912D27",
"K  c #942B21",
"L  c #922D28",
"P  c #993129",
"I  c #99312A",
"U  c #9A3832",
"Y  c #A73E37",
"T  c #896113",
"R  c #A1403D",
"E  c #A1423C",
"W  c #BC4D3F",
"Q  c #B17C18",
"!  c #B17C19",
"~  c #A74743",
"^  c #A74841",
"/  c #A74842",
"(  c #AA4E48",
")  c #AD4B4B",
"_  c #AE4F4A",
"`  c #B05048",
"'  c #BD564D",
"]  c #BE5C57",
"[  c #BA625B",
"{  c #BC6058",
"}  c #BC6361",
"|  c #C0693A",
" . c #C35D53",
".. c #C25F55",
"X. c #C25F57",
"o. c #C46656",
"O. c #CF7E47",
"+. c #C76D6C",
"@. c #C67369",
"#. c #BF8518",
"$. c #BE841A",
"%. c #C2871B",
"&. c #C58813",
"*. c #C38E19",
"=. c #C58A1D",
"-. c #C98D1E",
";. c #C5901D",
":. c #CA971A",
">. c #CC9020",
",. c #CF9222",
"<. c #C99921",
"1. c #D29522",
"2. c #D39523",
"3. c #D49921",
"4. c #D7A618",
"5. c #D6A71C",
"6. c #D6A61F",
"7. c #D9A719",
"8. c #DBAA1D",
"9. c #DDAA1A",
"0. c #DEAD1F",
"q. c #D1A320",
"w. c #D3A620",
"e. c #DBAD29",
"r. c #E2AE1C",
"t. c #E6B21E",
"y. c #E1AF20",
"u. c #E2A738",
"i. c #E5B426",
"p. c #E1B12B",
"a. c #E6B629",
"s. c #ECB621",
"d. c #E9B82B",
"f. c #EAB828",
"g. c #EBBA2B",
"h. c #EAB92C",
"j. c #EDBE2F",
"k. c #E8B534",
"l. c #EABA31",
"z. c #EBBC31",
"x. c #ECBE30",
"c. c #F1BA23",
"v. c #F4BC24",
"b. c #D78F46",
"n. c #D7B244",
"m. c #E4BC4D",
"M. c #EDC12F",
"N. c #F6C324",
"B. c #E3C774",
"V. c #8387B0",
"C. c #81A9E4",
"Z. c #8FB3E7",
"A. c #97B4E7",
"S. c #AEC8ED",
"D. c #B3C8EE",
"F. c #B6CAED",
"G. c #BFCBEC",
"H. c #BFD1F1",
"J. c #C88B85",
"K. c #D29D98",
"L. c #DA9D98",
"P. c #DBA09B",
"I. c #DDA7A6",
"U. c #E3BBB6",
"Y. c #F2D78D",
"T. c #F3D98F",
"R. c #EBD7A0",
"E. c #F3E1B3",
"W. c #C2D0EF",
"Q. c #CDDCF4",
"!. c #D5E0F4",
"~. c #DDE6F6",
"^. c #E5C6C4",
"/. c #E9C8C5",
"(. c #FBF3DA",
"). c #F9F1DE",
"_. c #F3E3E2",
"`. c #FAF3E1",
"'. c #FCF9EF",
"]. c #F1F5FC",
"[. c #F9F2F1",
"{. c #FDFBFB",
"}. c gray100",
"|. c None",
/* pixels */
"|.|.|.|.|.@ U L G H C |.|.|.|.|.",
"|.|.|.|.^ E Y ^.J.P S D H A |.|.",
"|.|.~ ^ ` ' /.}.{ [ K.( P K F |.",
"|.| ) ] ..P.}._.{.[.U.@.R 3 &   ",
"|.3.k.b.o.+.I.L. .` _ 4 x a 1   ",
"|.2.z.x.M.u.O. .o.V.m d Z.!.>   ",
"|.2.l.d.d.g.j.N.M n k d Q.N 1   ",
"|.,.a.Y.(.T.d.v.b v d C.].F.-   ",
"|.,.r.}.'.`.i.c.c h S.H.A.w <   ",
"|.-.8.}.m.0.p.s.z g p D.V u -   ",
"|.=.6.}.E.7.e.t.z f t ~.0 u ;   ",
"|.#.w.B.}.).6.r.i u 8 W.0 6 ;   ",
"|.#.*.:.n.R.q.9.r 0 G.B ; $ O   ",
"|.Z T ! #.*.<.4.7 2 5 # .       ",
"|.|.    o T ! &.% +         |.|.",
"|.|.|.|.|.      X     |.|.|.|.|."
};
