/* XPM */
static char *rx[] = {
/* columns rows colors chars-per-pixel */
"16 16 161 2",
"   c black",
".  c #0C171B",
"X  c #152F36",
"o  c #17353C",
"O  c #262019",
"+  c #093553",
"@  c #0D3952",
"#  c #0C3A59",
"$  c #163740",
"%  c #123C57",
"&  c #103D5A",
"*  c #1E434C",
"=  c #12405B",
"-  c #14405D",
";  c #16425E",
":  c #1F4650",
">  c #1D4159",
",  c #254651",
"<  c #2E4F5A",
"1  c #204A6B",
"2  c #234E6F",
"3  c #244E6F",
"4  c #254F71",
"5  c #255461",
"6  c #265662",
"7  c #275763",
"8  c #275764",
"9  c #265963",
"0  c #2B5562",
"q  c #2C5663",
"w  c #295964",
"e  c #295B65",
"r  c #2A5C65",
"t  c #2B5C65",
"y  c #2C5966",
"u  c #2D5A67",
"i  c #2C5F67",
"p  c #2D5E67",
"a  c #2E5F67",
"s  c #2B5A69",
"d  c #2C5B69",
"f  c #2C5B6A",
"g  c #2D5B6A",
"h  c #2D5C6A",
"j  c #2D5F68",
"k  c #2E5E68",
"l  c #255073",
"z  c #275174",
"x  c #275275",
"c  c #265278",
"v  c #285274",
"b  c #285275",
"n  c #305F6F",
"m  c #365C76",
"M  c #335F78",
"N  c #2E6068",
"B  c #2E6069",
"V  c #2F6069",
"C  c #32636D",
"Z  c #34636E",
"A  c #316774",
"S  c #376472",
"D  c #356179",
"F  c #376872",
"G  c #386973",
"H  c #396B75",
"J  c #3C6C77",
"K  c #386C7A",
"L  c #386E79",
"P  c #3D6D79",
"I  c #3D6C7B",
"U  c #3F6F79",
"Y  c #3E6E7A",
"T  c #347076",
"R  c #3F717B",
"E  c #725832",
"W  c #4A6668",
"Q  c #406E7E",
"!  c #416F7F",
"~  c #456D7C",
"^  c #41717C",
"/  c #457179",
"(  c #5B6A6D",
")  c #315F85",
"_  c #346184",
"`  c #356287",
"'  c #3E688A",
"]  c #406A8A",
"[  c #436D8E",
"{  c #466F90",
"}  c #427081",
"|  c #437181",
" . c #437282",
".. c #447283",
"X. c #427986",
"o. c #497984",
"O. c #487A85",
"+. c #4A7887",
"@. c #497888",
"#. c #4C7B89",
"$. c #4F7D8B",
"%. c #4E7E8B",
"&. c #4F7D8C",
"*. c #4F7E8E",
"=. c #507D8A",
"-. c #507C8F",
";. c #537F96",
":. c #527D99",
">. c #537E99",
",. c #3D817D",
"<. c #50808D",
"1. c #51808E",
"2. c #52818E",
"3. c #578A8E",
"4. c #558491",
"5. c #568493",
"6. c #5C8791",
"7. c #5B8A97",
"8. c #5B8A98",
"9. c #5B8B98",
"0. c #5E8E9C",
"q. c #608E9D",
"w. c #64949A",
"e. c #6F9399",
"r. c #6391A0",
"t. c #6492A1",
"y. c #6896A4",
"u. c #6B9BA9",
"i. c #6F9DAC",
"p. c #77A2A5",
"a. c #7DA9A7",
"s. c #80643B",
"d. c #87693C",
"f. c #92774A",
"g. c #967D4F",
"h. c #947F53",
"j. c #9F9166",
"k. c #A38A5B",
"l. c #A2966B",
"z. c #A3976C",
"x. c #A4986D",
"c. c #A79A6D",
"v. c #A69A6E",
"b. c #A9996C",
"n. c #AF9D6E",
"m. c #A49375",
"M. c #A89C71",
"N. c #B09A68",
"B. c #B3A476",
"V. c #C0AB73",
"C. c #82A2AA",
"Z. c #83A6AF",
"A. c #88A4AA",
"S. c #BAB183",
"D. c #AAC1C7",
"F. c #AFC2C6",
"G. c #BED5D4",
"H. c #D8C78C",
"J. c #D1E1E0",
"K. c gray100",
"L. c None",
/* pixels */
"L.L.L.L.L.L.L.L.L.v.z.j.h.L.L.L.",
"L.L.L.L.L.L.L.L.L.l.v.n.f.s.L.L.",
"L.L.L.L.L.L.L.L.L.v.b.k.d.E   L.",
"L.L.L.L.L.L.L.L.L.v.B.g.O     L.",
"; ; & & & & & # W V.n.( + % L.L.",
"1 2 4 b b b x m H.B.m.c 4 4 > L.",
"| ;.;.:.{ { ] ' ' ) _ M D s :   ",
"| 0.u.i.y.9.Z.O.R e.a a j w *   ",
"| 5.t.t.0.w.K.6.T K./ j j 8 X   ",
"I @.7.7.X.J.D.A G.F.e j j 5     ",
"L.Y %.2.p.K.K 3.K.C i j 6 o   L.",
"L.@ S K a.C.Y ,.A.e a 6 $     L.",
"L.*.*.*.Y H F Z i w J =.~ . L.L.",
"L.! +.#.5.O.Y F / 2.2.#.| <   L.",
"L.M q q g g f j s s u 0 ,     L.",
"L.L.                        L.L."
};
