#define extensionbuilder_width 16
#define extensionbuilder_height 16
static unsigned char extensionbuilder_bits[] = {
   0x00, 0x00, 0x00, 0x00, 0x00, 0x00, 0x00, 0x10, 0x00, 0x38, 0x00, 0x3a,
   0x00, 0x3f, 0x00, 0x13, 0x00, 0x00, 0x10, 0x04, 0x20, 0x08, 0x60, 0x18,
   0x74, 0x1d, 0xfe, 0x1f, 0xa6, 0x09, 0x00, 0x00 };
