#define htmledit_width 16
#define htmledit_height 16
static unsigned char htmledit_bits[] = {
   0xff, 0xff, 0x01, 0x80, 0x01, 0x80, 0x01, 0x80, 0x01, 0x80, 0x91, 0x89,
   0x49, 0x92, 0x45, 0xa2, 0xc5, 0xa3, 0x49, 0x92, 0x51, 0x8a, 0x01, 0x80,
   0x01, 0x80, 0x01, 0x80, 0x01, 0x80, 0xff, 0xff };
