#define jrx_width 16
#define jrx_height 16
static unsigned char jrx_bits[] = {
   0x55, 0xd5, 0x01, 0x80, 0x00, 0x00, 0x01, 0x80, 0xd8, 0x24, 0x51, 0xa5,
   0x50, 0x25, 0x51, 0x99, 0xd0, 0x24, 0x51, 0xa5, 0x4c, 0x25, 0x01, 0x80,
   0x00, 0x00, 0x01, 0x80, 0x00, 0x00, 0x55, 0xd5 };
