#define jsenvironment_width 16
#define jsenvironment_height 16
static unsigned char jsenvironment_bits[] = {
   0xff, 0xff, 0x01, 0x80, 0x01, 0x80, 0x41, 0x83, 0x41, 0x81, 0x41, 0x82,
   0x21, 0x83, 0x01, 0x80, 0x01, 0x80, 0xb9, 0xaa, 0x99, 0xab, 0x89, 0x92,
   0xb9, 0x92, 0x01, 0x80, 0x01, 0x80, 0xff, 0xff };
