#define jsshell_width 16
#define jsshell_height 16
static unsigned char jsshell_bits[] = {
   0x00, 0x00, 0xff, 0xff, 0x01, 0x80, 0x01, 0x80, 0x01, 0x80, 0xf9, 0x9e,
   0x21, 0x82, 0x21, 0x8e, 0x21, 0x88, 0x29, 0x8e, 0x39, 0x80, 0x01, 0x80,
   0x01, 0x80, 0x01, 0x80, 0xff, 0xff, 0x00, 0x00 };
