#define xpathtester_width 16
#define xpathtester_height 16
static unsigned char xpathtester_bits[] = {
   0x55, 0xd5, 0x01, 0x80, 0x00, 0x00, 0x01, 0x80, 0x50, 0x34, 0x91, 0xd2,
   0x90, 0x52, 0x09, 0xd1, 0x08, 0x31, 0x89, 0x92, 0x84, 0x12, 0x45, 0x94,
   0x00, 0x00, 0x01, 0x80, 0x00, 0x00, 0x55, 0xd5 };
