#define xuledit_width 16
#define xuledit_height 16
static unsigned char xuledit_bits[] = {
   0x00, 0x00, 0xfe, 0x7f, 0x02, 0x40, 0xaa, 0x4a, 0x92, 0x4a, 0x92, 0x4a,
   0x2a, 0x59, 0x02, 0x40, 0x72, 0x43, 0x12, 0x45, 0x32, 0x45, 0x12, 0x45,
   0x72, 0x43, 0x02, 0x40, 0xfe, 0x7f, 0x00, 0x00 };
