/* XPM */
static char *komodo16_ide[] = {
/* columns rows colors chars-per-pixel */
"16 16 111 2 ",
"   c #DD9E12",
".  c #DBA20E",
"X  c #DFA50E",
"o  c #E1A30F",
"O  c #E6AC0D",
"+  c #E7AC0F",
"@  c #ECAF0F",
"#  c #E6B70B",
"$  c #E8B408",
"%  c #EBB70B",
"&  c #EEB40B",
"*  c #EFB908",
"=  c #F0BB07",
"-  c #F3BD09",
";  c #F9BC0C",
":  c #FDBD0E",
">  c #E0A612",
",  c #E7A810",
"<  c #E8A910",
"1  c #EDAC10",
"2  c #F1AF10",
"3  c #F5B210",
"4  c #F6B213",
"5  c #FCB613",
"6  c #F9B214",
"7  c #FDB811",
"8  c #FDBB10",
"9  c #E1B020",
"0  c #EDBF2D",
"q  c #F2BA21",
"w  c #F9C406",
"e  c #FFC707",
"r  c #FCC905",
"t  c #FECA05",
"y  c #FFCB05",
"u  c #FFC906",
"i  c #FEC30B",
"p  c #FEC509",
"a  c #FEC608",
"s  c #FEC00C",
"d  c #FFCC0A",
"f  c #FFD01E",
"g  c #FEC924",
"h  c #F8CE2F",
"j  c #EDC635",
"k  c #EFBF43",
"l  c #F3C243",
"z  c #F0CC4E",
"x  c #FCD643",
"c  c #FFD949",
"v  c #FED94D",
"b  c #E6C75E",
"n  c #E9C35F",
"m  c #F8D454",
"M  c #FED45A",
"N  c #FED462",
"B  c #F5D76A",
"V  c #FBDA6A",
"C  c #F0CE75",
"Z  c #F3D773",
"A  c #F1D775",
"S  c #FEDD74",
"D  c #F3D778",
"F  c #FFE068",
"G  c #FFE273",
"H  c #FFE275",
"J  c #FFE47D",
"K  c #ECCF81",
"L  c #F6DC83",
"P  c #F8DE88",
"I  c #EDD391",
"U  c #EED697",
"Y  c #EEDA91",
"T  c #F2DD97",
"R  c #F2DF96",
"E  c #F2DF97",
"W  c #FFE582",
"Q  c #FFE686",
"!  c #FFE592",
"~  c #FFE892",
"^  c #FFEA9D",
"/  c #F3DDA4",
"(  c #F2DFA8",
")  c #FFE7A2",
"_  c #F9E7AB",
"`  c #F9E9AD",
"'  c #F4E6B2",
"]  c #FFEEB2",
"[  c #FAECB8",
"{  c #F8EECF",
"}  c #FEF1CE",
"|  c #FFF2CF",
" . c #FAEFD1",
".. c #FBF2D0",
"X. c #FCF3D1",
"o. c #FFF3D1",
"O. c #F9F1D7",
"+. c #FAF1D8",
"@. c #F9F2D8",
"#. c #FCF5DA",
"$. c #FAF4E3",
"%. c #FCF7E5",
"&. c #FDF8E8",
"*. c #FCF8EC",
"=. c #FEFBEF",
"-. c #FDFAF1",
";. c #FEFDFA",
":. c #FFFEFA",
">. c #FFFFFE",
",. c white",
"<. c None",
/* pixels */
"<.<.<.<.<.<.<.<.<.<.<.<.<.<.<.<.",
"<.<.<.<.<.<.<.<.u <.<.<.<.<.<.<.",
"<.<.<.<.<.<.u u u u u <.<.<.<.<.",
"<.<.<.<.u d G Q G J W f u <.<.<.",
"<.<.u u u ~ v [ >.#...` c u u <.",
"<.<.u u c F ..>.>.' R R A h u <.",
"<.<.u u ^ m >.>...Y # Z j B u <.",
"<.<.e e ] A =.>.b T z d L V = <.",
"<.<.i i ~ $._ >.@.P $ - i $ - <.",
"<.<.i i g $.{ >.-.#.0 i i S i <.",
"<.<.i ; ..>.*.>.>.( 9 ; M ) $ <.",
"<.<.i 7 N / $.K >.>.{  ...q + <.",
"<.<.$ 7 7 l Z   k U U n > o + <.",
"<.<.<.<.2 7 2 2 7 3 < < o <.<.<.",
"<.<.<.<.<.<.4 4 4 4 4 <.<.<.<.<.",
"<.<.<.<.<.<.<.o 4 o <.<.<.<.<.<."
};
