/* XPM */
static char *komodo64_ide[] = {
/* columns rows colors chars-per-pixel */
"64 64 184 2 ",
"   c #D79E0E",
".  c #D89E0F",
"X  c #D89F12",
"o  c #DAAD05",
"O  c #D7A10D",
"+  c #DBA40C",
"@  c #DCAC0A",
"#  c #DFB204",
"$  c #D9A414",
"%  c #DBAE11",
"&  c #DCAA1A",
"*  c #DFB314",
"=  c #DDB41D",
"-  c #E2A60F",
";  c #E4AB0C",
":  c #ECAE0F",
">  c #E3B305",
",  c #E9B606",
"<  c #EDBB07",
"1  c #E3B309",
"2  c #EBB50A",
"3  c #EDBA09",
"4  c #F2BE07",
"5  c #F1B40E",
"6  c #F4BC0A",
"7  c #FDBD0E",
"8  c #E1A212",
"9  c #E6AB14",
"0  c #EDAC11",
"q  c #F1AD12",
"w  c #E4B811",
"e  c #E8BC17",
"r  c #EEBD19",
"t  c #F4B211",
"y  c #FCB613",
"u  c #F4BE15",
"i  c #FDB911",
"p  c #F4B61F",
"a  c #DBA625",
"s  c #DCAC21",
"d  c #DCAC2C",
"f  c #DDB524",
"g  c #DEB823",
"h  c #DFB92C",
"j  c #DDAD34",
"k  c #DEB232",
"l  c #DFB836",
"z  c #E0B422",
"x  c #E9B12A",
"c  c #E0BA2D",
"v  c #FDBD23",
"b  c #E2B432",
"n  c #E9B433",
"m  c #E2BB36",
"M  c #E8B73C",
"N  c #F2C006",
"B  c #FEC607",
"V  c #FFCB05",
"C  c #FEC30A",
"Z  c #FFCB0B",
"A  c #F1C211",
"S  c #FEC112",
"D  c #FFCB13",
"F  c #F2C01D",
"G  c #F9C41C",
"H  c #FFCF18",
"J  c #FFD11F",
"K  c #ECC52E",
"L  c #FEC523",
"P  c #FECA22",
"I  c #FDC12B",
"U  c #FECB2A",
"Y  c #FFD22A",
"T  c #EBC63D",
"R  c #FDC934",
"E  c #F4C33A",
"W  c #F5C939",
"Q  c #FDCC39",
"!  c #FDD336",
"~  c #FFD43B",
"^  c #E1B64A",
"/  c #E1B84C",
"(  c #E3BD53",
")  c #E4BF58",
"_  c #E4C147",
"`  c #EEC444",
"'  c #EDCA44",
"]  c #E5C24A",
"[  c #FDCC45",
"{  c #F6CC4F",
"}  c #FDCD49",
"|  c #FED342",
" . c #FFD64A",
".. c #FFDA4C",
"X. c #E6C554",
"o. c #EEC455",
"O. c #E6C857",
"+. c #ECC851",
"@. c #E5C45B",
"#. c #E6C85A",
"$. c #ECCB5C",
"%. c #FBCE54",
"&. c #F7D451",
"*. c #FAD752",
"=. c #FED954",
"-. c #F3D15B",
";. c #FAD45A",
":. c #FFDB5C",
">. c #E5C065",
",. c #E7CA63",
"<. c #EBCD66",
"1. c #E6C269",
"2. c #E8CC6B",
"3. c #F2CF6A",
"4. c #F3D464",
"5. c #FEDB61",
"6. c #F7D36B",
"7. c #FFDE6B",
"8. c #E7C771",
"9. c #E9CD75",
"0. c #EACC7C",
"q. c #EAD172",
"w. c #EBD27B",
"e. c #F2D675",
"r. c #FEDA76",
"t. c #F3D779",
"y. c #F2D879",
"u. c #FCDD79",
"i. c #FFE06B",
"p. c #FEE277",
"a. c #FEE17C",
"s. c #EBCF85",
"d. c #ECD582",
"f. c #EDD38C",
"g. c #EEDA8E",
"h. c #F4DA85",
"j. c #FEDF84",
"k. c #F1DA89",
"l. c #FEDF8C",
"z. c #EDD691",
"x. c #EEDA93",
"c. c #EED799",
"v. c #EFDC99",
"b. c #F1D797",
"n. c #F9DE90",
"m. c #F1DD9B",
"M. c #FFE687",
"N. c #FFE58B",
"B. c #FEE493",
"V. c #FCE59D",
"C. c #FFEA9A",
"Z. c #F0DCA2",
"A. c #F1DEAB",
"S. c #F6E4A3",
"D. c #FCE5A2",
"F. c #FFEAA4",
"G. c #F3E1AA",
"H. c #FBE5AA",
"J. c #FFEDAC",
"K. c #F4E4B3",
"L. c #FCE7B4",
"P. c #F7E9B4",
"I. c #FEEDB4",
"U. c #F6EABB",
"Y. c #FAEBBC",
"T. c #FFF2BE",
"R. c #F6EAC7",
"E. c #FCEFC3",
"W. c #F7EDCB",
"Q. c #FAEECE",
"!. c #FFF2C4",
"~. c #FEF3CC",
"^. c #F7ECD1",
"/. c #F9EED1",
"(. c #FEF3D3",
"). c #FBF3DB",
"_. c #FFF8DD",
"`. c #FCF7E6",
"'. c #FFFAE4",
"]. c #FBF7E9",
"[. c #FDFAED",
"{. c #FEFCF4",
"}. c #FFFFFF",
"|. c None",
/* pixels */
"|.|.|.|.|.|.|.|.|.|.|.|.|.|.|.|.|.|.|.|.|.|.|.|.|.|.|.|.|.|.|.|.|.|.|.|.|.|.|.|.|.|.|.|.|.|.|.|.|.|.|.|.|.|.|.|.|.|.|.|.|.|.|.|.",
"|.|.|.|.|.|.|.|.|.|.|.|.|.|.|.|.|.|.|.|.|.|.|.|.|.|.|.|.|.|.|.V V |.|.|.|.|.|.|.|.|.|.|.|.|.|.|.|.|.|.|.|.|.|.|.|.|.|.|.|.|.|.|.",
"|.|.|.|.|.|.|.|.|.|.|.|.|.|.|.|.|.|.|.|.|.|.|.|.|.|.|.|.|.V V V V V V |.|.|.|.|.|.|.|.|.|.|.|.|.|.|.|.|.|.|.|.|.|.|.|.|.|.|.|.|.",
"|.|.|.|.|.|.|.|.|.|.|.|.|.|.|.|.|.|.|.|.|.|.|.|.|.|.|.|.V V V V V V V V |.|.|.|.|.|.|.|.|.|.|.|.|.|.|.|.|.|.|.|.|.|.|.|.|.|.|.|.",
"|.|.|.|.|.|.|.|.|.|.|.|.|.|.|.|.|.|.|.|.|.|.|.|.|.|.V V V V V V V V V V V V |.|.|.|.|.|.|.|.|.|.|.|.|.|.|.|.|.|.|.|.|.|.|.|.|.|.",
"|.|.|.|.|.|.|.|.|.|.|.|.|.|.|.|.|.|.|.|.|.|.|.|.V V V V V V V V V V V V V V V V |.|.|.|.|.|.|.|.|.|.|.|.|.|.|.|.|.|.|.|.|.|.|.|.",
"|.|.|.|.|.|.|.|.|.|.|.|.|.|.|.|.|.|.|.|.|.|.|.V V V V V V V V V V V V V V V V V V |.|.|.|.|.|.|.|.|.|.|.|.|.|.|.|.|.|.|.|.|.|.|.",
"|.|.|.|.|.|.|.|.|.|.|.|.|.|.|.|.|.|.|.|.|.V V V V V V V V V V V V V V V V V V V V V V |.|.|.|.|.|.|.|.|.|.|.|.|.|.|.|.|.|.|.|.|.",
"|.|.|.|.|.|.|.|.|.|.|.|.|.|.|.|.|.|.|.V V V V V V V V V V V V V V V V V V V V V V V V V V |.|.|.|.|.|.|.|.|.|.|.|.|.|.|.|.|.|.|.",
"|.|.|.|.|.|.|.|.|.|.|.|.|.|.|.|.|.|.V V V V V V V V V V V V V V V V V V V V V V V V V V V V |.|.|.|.|.|.|.|.|.|.|.|.|.|.|.|.|.|.",
"|.|.|.|.|.|.|.|.|.|.|.|.|.|.|.|.V V V V V V V V V V V V V V V V V V V V V V V V V V V V V V V V |.|.|.|.|.|.|.|.|.|.|.|.|.|.|.|.",
"|.|.|.|.|.|.|.|.|.|.|.|.|.|.V V V V V V V V V V V V V V V V V V V V V V V V V V V V V V V V V V V V |.|.|.|.|.|.|.|.|.|.|.|.|.|.",
"|.|.|.|.|.|.|.|.|.|.|.|.|.V V V V V V V V V V V V J i.J._.{.}.}.[.(.J.i.J V V V V V V V V V V V V V V |.|.|.|.|.|.|.|.|.|.|.|.|.",
"|.|.|.|.|.|.|.|.|.|.|.V V V V V V V V V V V V Y J.{.}.}.(.J.C.C.J.!.{.}.}.J.! V V V V V V V V V V V V V V |.|.|.|.|.|.|.|.|.|.|.",
"|.|.|.|.|.|.|.|.|.V V V V V V V V V V V V V M.}.}.I.=.A > # o o # # # ' V.{.}.J.Y V V V V V V V V V V V V V V |.|.|.|.|.|.|.|.|.",
"|.|.|.|.|.|.|.|.V V V V V V V V V V V V H !.}.!.! > # o # > w K ' ' T g o g P.}.{.p.V V V V V V V V V V V V V V |.|.|.|.|.|.|.|.",
"|.|.|.|.|.|.|.V V V V V V V V V V V V H ~.}.M.< o o > &.F.'.}.}.}.}.}.}.}.~.g.O.S.}.(.Y V V V V V V V V V V V V V |.|.|.|.|.|.|.",
"|.|.|.|.|.|.|.V V V V V V V V V V V V T.}.p.> o > *._.}.}.}.}.}.}.}.}.}.}.}.}.{.O.h J.{...V V V V V V V V V V V V |.|.|.|.|.|.|.",
"|.|.|.|.|.|.|.V V V V V V V V V V V N.}.C.# o < C.}.}.}.}.}.}.}.}.}.v.h h W.}.}.}.y.o #.[.:.V V V V V V V B V V V |.|.|.|.|.|.|.",
"|.|.|.|.|.|.|.V V V B V V V V V V ! }.'.w o < F.}.}.}.}.}.}.}.}.}.}.q.@ o v.W.#.'.}.a.# K (.:.V V V V V V V V V V |.|.|.|.|.|.|.",
"|.|.|.|.|.|.|.V V Z V V V V V V Z !.}.4.o > i.}.}.}.}.}.}.}.}.}.}.}.{.T V (.`.@ = W.}.i.N e (.! V V V V V V V V V |.|.|.|.|.|.|.",
"|.|.|.|.|.|.|.V V B B V V B V B  .}.[.@ # D '.}.}.}.}.}.}.}.}.}.}.}.}.{.=.C.}.g.< * {.}. .N m (.Z V Z V V V B V V |.|.|.|.|.|.|.",
"|.|.|.|.|.|.|.Z V V B Z Z B Z V I.}.K.o 4 :.}.}.}.}.}.}.}.}.}.}.[.d.,.q.r.Y U.}.:.B /.}.[.Y V h.p.V Z V Z V V Z Z |.|.|.|.|.|.|.",
"|.|.|.|.|.|.|.V B B V B V B B D {.}.w.o V F.}.}.}.}.}.}.}.}.}.}.{.l o o o A 1 x.{. .B h ,.E.D F '.H V V B B B B V |.|.|.|.|.|.|.",
"|.|.|.|.|.|.|.Z B Z B Z Z B B :.}.}.2.> Z Y.}.}.}.}.}.}.}.}.{.}.}.{.-.< < < B > 2.{.! ; o g :.B E.-.Z B B Z B B B |.|.|.|.|.|.|.",
"|.|.|.|.|.|.|.B B B B B B B B N.}.}.2.< B (.}.}.}.}.}.}.}.}.G.x.}.}.(.B Z B B B , X.[.! B 4 ; B B.G.B B B B B B B |.|.|.|.|.|.|.",
"|.|.|.|.|.|.|.B B B B B B B B I.}.}.d.< B !.}.}.}.}.}.}.}.}.v.% `.}.).6 B B B B B < _ {. .B B < B._.6 B B Z B B B |.|.|.|.|.|.|.",
"|.|.|.|.|.|.|.B B B B B B B B (.}.}.K.6 B D.}.}.}.}.}.}.}.}.9.> y.}.W.,.B.:.B B B V 6 / {.5.B B E._.1 B B B B B B |.|.|.|.|.|.|.",
"|.|.|.|.|.|.|.B B B S B B B B _.}.}.[.2 B M.}.}.}.}.}.}.}.}.l , P `.}.}.J.B B B B S B 6 @.}.u.:.}.e.@ B B B B B B |.|.|.|.|.|.|.",
"|.|.|.|.|.|.|.B B S B B B B B (.}.}.}.+.B  .}.}.}.}.}.}.}.].+ < B r c.}.Q.h.u B B B B B 6 g.}.}.~.@ @ B B B S B B |.|.|.|.|.|.|.",
"|.|.|.|.|.|.|.B B B B B S B i E.}.}.}.K.B B [.}.}.}.}.}.}.Z.o 6 B 7 + g x.,.B B B B i B B 6 G.Y.F + 2 B B 7 B B B |.|.|.|.|.|.|.",
"|.|.|.|.|.|.|.B B S B 7 B B B F.}.}.}.}.E B D.}.}.}.}.}.}.@.m Q L B B 2 @ ; 2 7 S B B B B B 1 @ + ; B B B S B S B |.|.|.|.|.|.|.",
"|.|.|.|.|.|.|.i B B B 7 B 7 B r.}.}.}.}.R.B [ }.}.}.}.}.}.}.}.}.}.'.N.S 6 2 2 B B 7 B B B S B ; ; 7 B B B B 7 B B |.|.|.|.|.|.|.",
"|.|.|.|.|.|.|.B S i B B B B B U }.}.}.}.}.;.B Q.}.}.}.}.}.}.}.}.}.}.}. .B B B S S B B i B B 7 B B B B S S B B i S |.|.|.|.|.|.|.",
"|.|.|.|.|.|.|.B B 7 B S i B B 7 Y.}.}.}.}.].P ;.}.}.}.}.}.}.}.}.}.}.}.` B 7 7 B i B i B i B B S B 7 Q 7 B 7 B 7 B |.|.|.|.|.|.|.",
"|.|.|.|.|.|.|.7 B 7 i B B i 7 B R }.}.}.}.}.Q.S /.}.}.}.}.}.}.}.}.}.}.s p B 7 7 B 7 B B B i i B 7 G (.B 7 B i B 7 |.|.|.|.|.|.|.",
"|.|.|.|.|.|.|.B 7 7 B i S B 7 i 7 $.[.}.}.}.}.B.{ }.}.}.}.}.}.}.[.}._.9.%.B i B B 7 B i 7 B B 7 7 N.(.7 B 7 B S B |.|.|.|.|.|.|.",
"|.|.|.|.|.|.|.S 7 B i B B i 7 B 7 6 & ).}.}.}.}.j.K.}.}.}.}.}.W.j }.}.R.R Q S i 7 S i B 7 7 7 B U }.B.+ i B i B i |.|.|.|.|.|.|.",
"|.|.|.|.|.|.|.B B S B i i B 7 7 L r./.}.}.}.}.}.}.x.{.}.}.}.}.[.$ ).}.}./.6.S 7 i B i B 7 7 7 7 E.}.3.; 7 i B i B |.|.|.|.|.|.|.",
"|.|.|.|.|.|.|.7 i i B i i B S n.}.}.}.}.}.}.}.}.}.}._.}.}.}.}.}.0.D.}.}.m.G 6 7 i B 7 7 i B 7 B.}.}.s ; B i i B i |.|.|.|.|.|.|.",
"|.|.|.|.|.|.|.i 7 7 7 7 7 7 I.}.}.}.}.}.}.}.}.`.}.}.}.}.}.}.}.}.}.} b ( ) s 5 7 7 7 7 7 B i u.}.}.A.+ ; 7 7 7 7 S |.|.|.|.|.|.|.",
"|.|.|.|.|.|.|.B 7 7 7 7 7 7 }.}.}.}.}.}.}.}.}.s.z.}.}.}.}.}.}.}.}.[.+.+ + ; i 7 7 7 7 7 i l.}.}.}.d + 7 7 7 7 7 7 |.|.|.|.|.|.|.",
"|.|.|.|.|.|.|.i 7 7 i 7 i i F.}.}.}.}.}.}.}.}.[.s A.}.}.}.}.}.}.}.}.}.L.E 5 t 7 i i 7 [ ~.}.}.}.0.+ 9 7 7 i i 7 7 |.|.|.|.|.|.|.",
"|.|.|.|.|.|.|.i i 7 7 7 7 7 i v.}.}.}.}.}.}.}.}.G.0 K.}.}.}.}.}.}.}.}.}.}._.B.u.r.B.(.}.}.}.}.A.+   6 i 7 7 7 7 i |.|.|.|.|.|.|.",
"|.|.|.|.|.|.|.i 7 i 7 7 y 7 7 - d 8.f.d.^ 1.}.}./.7 9 A.}.}.}.}.}.}.}.}.}.}.}.}.}.}.}.}.}.}.A.$   ; 7 i 7 i 7 7 7 |.|.|.|.|.|.|.",
"|.|.|.|.|.|.|.i i 7 y 7 7 7 i 7 ;       ^ {.}.}.0.- y - s.}.}.}.}.}.}.}.}.}.}.}.}.}.}.}.}.0.    ; i 7 i 7 i i i i |.|.|.|.|.|.|.",
"|.|.|.|.|.|.|.|.y 7 7 i i 7 7 y i y q o.Q.I.}.}.d - 7 y - ^ _.}.}.}.}.}.}.}.}.}.}.}.}.A.j     - 7 i i i 7 i i i |.|.|.|.|.|.|.|.",
"|.|.|.|.|.|.|.|.|.- y 7 y y i i i i v %.y Z.Z.W.  ; y 7 y - $ 1.^.}.}.}.}.}.}.}._.f.j       ; y i i i i i i - |.|.|.|.|.|.|.|.|.",
"|.|.|.|.|.|.|.|.|.|.|.t i i i i i i i i t b.M 0.  y 7 y i i t 8   a ^ 1.1.>.^ a         - y i i y i i i t |.|.|.|.|.|.|.|.|.|.|.",
"|.|.|.|.|.|.|.|.|.|.|.|.|.i i i i y y y v v n x   y 7 y i i y y 0 -           X     ; y i y i i i i y |.|.|.|.|.|.|.|.|.|.|.|.|.",
"|.|.|.|.|.|.|.|.|.|.|.|.|.|.$ i i i y i y y ; t ; i y y y i y i y y y 5 0 q q t y y i i y i i y i 8 |.|.|.|.|.|.|.|.|.|.|.|.|.|.",
"|.|.|.|.|.|.|.|.|.|.|.|.|.|.|.|.q i y i y y y t y y i y i y i y i y y y y y i y y y y i y y i q |.|.|.|.|.|.|.|.|.|.|.|.|.|.|.|.",
"|.|.|.|.|.|.|.|.|.|.|.|.|.|.|.|.|.|.y y y y y y y y y i y i y y y y y i y y y i i y i y i y |.|.|.|.|.|.|.|.|.|.|.|.|.|.|.|.|.|.",
"|.|.|.|.|.|.|.|.|.|.|.|.|.|.|.|.|.|.|.$ y y y y y y y y y y y y y y y y y y y y y y y y 8 |.|.|.|.|.|.|.|.|.|.|.|.|.|.|.|.|.|.|.",
"|.|.|.|.|.|.|.|.|.|.|.|.|.|.|.|.|.|.|.|.|.q y y y y y y y y y y y y y y y y y y y y q |.|.|.|.|.|.|.|.|.|.|.|.|.|.|.|.|.|.|.|.|.",
"|.|.|.|.|.|.|.|.|.|.|.|.|.|.|.|.|.|.|.|.|.|.|.y y y y y y y y y y y y y y y y y y |.|.|.|.|.|.|.|.|.|.|.|.|.|.|.|.|.|.|.|.|.|.|.",
"|.|.|.|.|.|.|.|.|.|.|.|.|.|.|.|.|.|.|.|.|.|.|.|.8 y v y y y p y y y y y y y p 8 |.|.|.|.|.|.|.|.|.|.|.|.|.|.|.|.|.|.|.|.|.|.|.|.",
"|.|.|.|.|.|.|.|.|.|.|.|.|.|.|.|.|.|.|.|.|.|.|.|.|.|.q y y y y y y y y y y q |.|.|.|.|.|.|.|.|.|.|.|.|.|.|.|.|.|.|.|.|.|.|.|.|.|.",
"|.|.|.|.|.|.|.|.|.|.|.|.|.|.|.|.|.|.|.|.|.|.|.|.|.|.|.|.q y y y y y y y |.|.|.|.|.|.|.|.|.|.|.|.|.|.|.|.|.|.|.|.|.|.|.|.|.|.|.|.",
"|.|.|.|.|.|.|.|.|.|.|.|.|.|.|.|.|.|.|.|.|.|.|.|.|.|.|.|.|.8 y y y y 8 |.|.|.|.|.|.|.|.|.|.|.|.|.|.|.|.|.|.|.|.|.|.|.|.|.|.|.|.|.",
"|.|.|.|.|.|.|.|.|.|.|.|.|.|.|.|.|.|.|.|.|.|.|.|.|.|.|.|.|.|.|.q q |.|.|.|.|.|.|.|.|.|.|.|.|.|.|.|.|.|.|.|.|.|.|.|.|.|.|.|.|.|.|.",
"|.|.|.|.|.|.|.|.|.|.|.|.|.|.|.|.|.|.|.|.|.|.|.|.|.|.|.|.|.|.|.|.|.|.|.|.|.|.|.|.|.|.|.|.|.|.|.|.|.|.|.|.|.|.|.|.|.|.|.|.|.|.|.|.",
"|.|.|.|.|.|.|.|.|.|.|.|.|.|.|.|.|.|.|.|.|.|.|.|.|.|.|.|.|.|.|.|.|.|.|.|.|.|.|.|.|.|.|.|.|.|.|.|.|.|.|.|.|.|.|.|.|.|.|.|.|.|.|.|.",
"|.|.|.|.|.|.|.|.|.|.|.|.|.|.|.|.|.|.|.|.|.|.|.|.|.|.|.|.|.|.|.|.|.|.|.|.|.|.|.|.|.|.|.|.|.|.|.|.|.|.|.|.|.|.|.|.|.|.|.|.|.|.|.|."
};
