/* XPM */
static char *komodo48_ide[] = {
/* columns rows colors chars-per-pixel */
"48 48 167 2 ",
"   c #D79E0E",
".  c #D99E0F",
"X  c #D29710",
"o  c #D79F11",
"O  c #D99F14",
"+  c #DBAC06",
"@  c #D7A10D",
"#  c #DAA30C",
"$  c #DCAB0A",
"%  c #DDB10B",
"&  c #DAAA11",
"*  c #DAA61C",
"=  c #DEB216",
"-  c #DDB61F",
";  c #E4A60F",
":  c #E4AB0E",
">  c #ECAD0F",
",  c #E3B205",
"<  c #EBB706",
"1  c #EDBB06",
"2  c #E5B309",
"3  c #EDB50A",
"4  c #F0BF05",
"5  c #F3B40E",
"6  c #F4BC0A",
"7  c #FDBD0E",
"8  c #E3A411",
"9  c #E2A813",
"0  c #EBAB11",
"q  c #E4AC1E",
"w  c #F2AD14",
"e  c #E3B414",
"r  c #E8BA16",
"t  c #E2B719",
"y  c #E5B91A",
"u  c #EEBD1E",
"i  c #F4B211",
"p  c #FCB613",
"a  c #F0BA13",
"s  c #FDB911",
"d  c #F1B518",
"f  c #DBA721",
"g  c #DDAB2D",
"h  c #DFB724",
"j  c #DEB826",
"k  c #DFB729",
"l  c #E1B922",
"z  c #E7B529",
"x  c #E3BA2B",
"c  c #FDBE22",
"v  c #E7BF33",
"b  c #EBB738",
"n  c #E5BC3C",
"m  c #F7C306",
"M  c #FEC707",
"N  c #FFCB05",
"B  c #F7C009",
"V  c #FEC30A",
"C  c #FFCB0A",
"Z  c #F3C113",
"A  c #FAC117",
"S  c #FECB16",
"D  c #F5C21B",
"F  c #FDC61C",
"G  c #FECC1A",
"H  c #FEC724",
"J  c #F5C822",
"K  c #FECB24",
"L  c #F2C52B",
"P  c #FECB2D",
"I  c #FFD224",
"U  c #FED22D",
"Y  c #F0C53D",
"T  c #F2CB3D",
"R  c #FDCA3B",
"E  c #FFD532",
"W  c #FFD73E",
"Q  c #E1B645",
"!  c #E3BB47",
"~  c #E1B448",
"^  c #E3BA4E",
"/  c #EDBD4A",
"(  c #E2B952",
")  c #E5BF5B",
"_  c #E3C14D",
"`  c #F2C240",
"'  c #F1CC47",
"]  c #FDCC44",
"[  c #FECE4D",
"{  c #FDD245",
"}  c #FFD842",
"|  c #F6D24D",
" . c #FED44B",
".. c #FFDA4E",
"X. c #E5C454",
"o. c #E6C854",
"O. c #E6C75C",
"+. c #E7C85F",
"@. c #ECCD5E",
"#. c #F4CB54",
"$. c #F1D155",
"%. c #FAD555",
"&. c #FFDA53",
"*. c #FDD45A",
"=. c #FCD95D",
"-. c #E7C567",
";. c #E7CB65",
":. c #EFC961",
">. c #E7C46C",
",. c #E9CF6E",
"<. c #F3CE69",
"1. c #FFDE63",
"2. c #F2D16D",
"3. c #FEDB6A",
"4. c #E9CD71",
"5. c #EACD7D",
"6. c #F1D775",
"7. c #F4D57D",
"8. c #FCDB7E",
"9. c #FFE16D",
"0. c #FFE173",
"q. c #FEE27E",
"w. c #EBCE87",
"e. c #EDD383",
"r. c #EED98B",
"t. c #F1D784",
"y. c #F7DE82",
"u. c #FDDA84",
"i. c #F4DC8A",
"p. c #EED698",
"a. c #F5DC90",
"s. c #F2D99A",
"d. c #FFE484",
"f. c #FEE38C",
"g. c #FFE492",
"h. c #FFE994",
"j. c #FBE49D",
"k. c #F0DCA3",
"l. c #F1E1A2",
"z. c #F8E4A6",
"x. c #FFECA7",
"c. c #FEE7A8",
"v. c #FFEBAA",
"b. c #F3E3B3",
"n. c #FDEDB4",
"m. c #F4E5BB",
"M. c #F5E8BC",
"N. c #FDEEBC",
"B. c #FFF1BD",
"V. c #F5E7C1",
"C. c #F6E9C6",
"Z. c #FAEDC4",
"A. c #F7EECB",
"S. c #F9EBC8",
"D. c #FEF2C5",
"F. c #FDF3CC",
"G. c #F8EFD5",
"H. c #FEF5D5",
"J. c #FDF5DD",
"K. c #FFF8DD",
"L. c #FCF6E3",
"P. c #FFFAE7",
"I. c #FCF7E8",
"U. c #FEFAED",
"Y. c #FEFBF3",
"T. c #FFFFFF",
"R. c None",
/* pixels */
"R.R.R.R.R.R.R.R.R.R.R.R.R.R.R.R.R.R.R.R.R.R.R.R.R.R.R.R.R.R.R.R.R.R.R.R.R.R.R.R.R.R.R.R.R.R.R.R.",
"R.R.R.R.R.R.R.R.R.R.R.R.R.R.R.R.R.R.R.R.R.R.R.N N R.R.R.R.R.R.R.R.R.R.R.R.R.R.R.R.R.R.R.R.R.R.R.",
"R.R.R.R.R.R.R.R.R.R.R.R.R.R.R.R.R.R.R.R.R.N N N N N N R.R.R.R.R.R.R.R.R.R.R.R.R.R.R.R.R.R.R.R.R.",
"R.R.R.R.R.R.R.R.R.R.R.R.R.R.R.R.R.R.R.R.N N N N N N N N R.R.R.R.R.R.R.R.R.R.R.R.R.R.R.R.R.R.R.R.",
"R.R.R.R.R.R.R.R.R.R.R.R.R.R.R.R.R.R.N N N N N N N N N N N N R.R.R.R.R.R.R.R.R.R.R.R.R.R.R.R.R.R.",
"R.R.R.R.R.R.R.R.R.R.R.R.R.R.R.R.N N N N N N N N N N N N N N N N R.R.R.R.R.R.R.R.R.R.R.R.R.R.R.R.",
"R.R.R.R.R.R.R.R.R.R.R.R.R.R.R.N N N N N N N N N N N N N N N N N N R.R.R.R.R.R.R.R.R.R.R.R.R.R.R.",
"R.R.R.R.R.R.R.R.R.R.R.R.R.N N N N N N N N N N N N N N N N N N N N N N R.R.R.R.R.R.R.R.R.R.R.R.R.",
"R.R.R.R.R.R.R.R.R.R.R.N N N N N N N N N N N N N N N N N N N N N N N N N N R.R.R.R.R.R.R.R.R.R.R.",
"R.R.R.R.R.R.R.R.R.R.N N N N N N N N N W h.F.Y.T.T.P.B.q.I N N N N N N N N N R.R.R.R.R.R.R.R.R.R.",
"R.R.R.R.R.R.R.R.N N N N N N N N N E D.T.D.d.&.W W 1.d.H.T.x.I N N N N N N N N N R.R.R.R.R.R.R.R.",
"R.R.R.R.R.R.N N N N N N N N N M 9.T.n.U m 1 + % - j D % T F.T.d.C N N N N N N N N N R.R.R.R.R.R.",
"R.R.R.R.R.N N N N N N N N N N 0.Y.9.m + j e.F.T.T.T.T.T.J.l.6.D.H.E N N N N N N N N N R.R.R.R.R.",
"R.R.R.R.R.N N N N N N N N N ..T.9.m + d.T.T.T.T.T.T.U.n.P.T.Y.o.$.K...N N N N N N N N R.R.R.R.R.",
"R.R.R.R.R.N N M N N N N N G U.x.m % n.T.T.T.T.T.T.T.,.+ o.J.M.T.@.y B.&.N N M N N N N R.R.R.R.R.",
"R.R.R.R.R.N N N N N N N N h.T.D + e.T.T.T.T.T.T.T.T.U.j 6.L.% e.T.| % n.U N N N M N N R.R.R.R.R.",
"R.R.R.R.R.N M M N M N N S T.n.+ = Y.T.T.T.T.T.T.T.T.Y.J.0.Y.e.1 F.Y.U y n.N N N M N M R.R.R.R.R.",
"R.R.R.R.R.C C M M M M M 0.T.6.+ =.T.T.T.T.T.T.T.T.;.+ + V T I.1.' r.M.F 6.=.M M M M C R.R.R.R.R.",
"R.R.R.R.R.M M M M M N M B.T.O., d.T.T.T.T.T.T.Y.T.T.O.+ % 1 h F.&.: = &.D D.N M M M N R.R.R.R.R.",
"R.R.R.R.R.M M M M M m N U.T.O.1 h.T.T.T.T.T.T.k.b.T.F.m m M m & N.$.1 + N U.Z m M M M R.R.R.R.R.",
"R.R.R.R.R.M M M M M M G T.T.5.1 d.T.T.T.T.T.T.e.j T.m.L ..N M V e D.1.V Z T.L m M M M R.R.R.R.R.",
"R.R.R.R.R.M M M M M M U T.T.M.6 =.T.T.T.T.T.T._ , b.T.T. .m N V V e H.q.d.J.$ m M M M R.R.R.R.R.",
"R.R.R.R.R.M V M M m V K T.T.T.u F T.T.T.T.T.T.& < V 4.L.j.D V V V V x U.T.{ $ 6 M V V R.R.R.R.R.",
"R.R.R.R.R.V V V V V V S T.T.T.t.V D.T.T.T.T.b.+ 6 V 2 & X.m V V V V V n Y < $ V M S V R.R.R.R.R.",
"R.R.R.R.R.V V V V V V V H.T.T.U.K 3.T.T.T.T.J.L.L.N.3.3 + > V V V V V 7 # + 6 V V V V R.R.R.R.R.",
"R.R.R.R.R.M V V V V V V f.T.T.T.z.A Y.T.T.T.T.T.T.T.T.K V 6 V V V V V V 6 6 V V V V V R.R.R.R.R.",
"R.R.R.R.R.V V V V V V V P T.T.T.T.=.i.T.T.T.T.T.T.T.T.a V V V V V V 7 V V V 3.V V V V R.R.R.R.R.",
"R.R.R.R.R.V V A V 7 V 7 7 2.T.T.T.Y.] Y.T.T.T.T.T.T.G.-.A 7 V 7 7 V V V 7 H H.7 V 7 V R.R.R.R.R.",
"R.R.R.R.R.V 7 V V 7 V V 7 7 ! T.T.T.L.a.T.T.T.T.e.V.T.k.*.A V 7 V 7 V V V c.N.5 7 V V R.R.R.R.R.",
"R.R.R.R.R.7 7 7 7 7 7 7 ] n.T.T.T.T.T.J.L.T.T.T.m.5.T.L.#.7 V 7 7 7 7 7 =.T.8.$ V s s R.R.R.R.R.",
"R.R.R.R.R.7 7 7 7 7 7 f.T.T.T.T.T.T.T.T.T.T.T.T.T.7.e.k.:.5 7 7 7 V 7 R Y.T.z : s V V R.R.R.R.R.",
"R.R.R.R.R.7 7 7 7 7 7 T.T.T.T.T.T.T.-.Y.T.T.T.T.T.T.<.@ # 5 7 7 A s ] Y.T.s.@ 3 s 7 s R.R.R.R.R.",
"R.R.R.R.R.s 7 s s s s h.T.T.T.T.T.T.V.Q T.T.T.T.T.T.T.S.:.d 7 7 R c.T.T.L.* # s 7 7 s R.R.R.R.R.",
"R.R.R.R.R.s s V s V V s ) b.G.m.p.T.T.` ^ Y.T.T.T.T.T.T.T.T.I.T.T.T.T.L.g # : 7 7 s 7 R.R.R.R.R.",
"R.R.R.R.R.s 7 s s s V s >     * C.T.Y.8 5 Q L.T.T.T.T.T.T.T.T.T.T.T.S.g   # s s s s 7 R.R.R.R.R.",
"R.R.R.R.R.R.3 s s s s s 7 w q p.s.Y.k.  5 5 f k.T.T.T.T.T.T.T.T.G.>.o   # i s 7 s > R.R.R.R.R.R.",
"R.R.R.R.R.R.R.R.i s s s s s c s u.w.( O s s s O g 5.b.C.C.b.w.Q O o   ; s s 7 i R.R.R.R.R.R.R.R.",
"R.R.R.R.R.R.R.R.R.O s s s s s s b / O 0 s s p p 8   X O   X X X   O 0 s s s O R.R.R.R.R.R.R.R.R.",
"R.R.R.R.R.R.R.R.R.R.R.0 s s s s s 0 0 w p p p p s s 0 8 8 8 8 0 i s s s 0 R.R.R.R.R.R.R.R.R.R.R.",
"R.R.R.R.R.R.R.R.R.R.R.R.R.w s i s i w s p s p p s s s i s s s s s s w R.R.R.R.R.R.R.R.R.R.R.R.R.",
"R.R.R.R.R.R.R.R.R.R.R.R.R.R.X s p p p p p p p p p p p p p p s s s o R.R.R.R.R.R.R.R.R.R.R.R.R.R.",
"R.R.R.R.R.R.R.R.R.R.R.R.R.R.R.R.9 p p p p p p p p p p p p p s 8 R.R.R.R.R.R.R.R.R.R.R.R.R.R.R.R.",
"R.R.R.R.R.R.R.R.R.R.R.R.R.R.R.R.R.R.w p p p p p p p p p p w R.R.R.R.R.R.R.R.R.R.R.R.R.R.R.R.R.R.",
"R.R.R.R.R.R.R.R.R.R.R.R.R.R.R.R.R.R.R.R.p p p p p p p p R.R.R.R.R.R.R.R.R.R.R.R.R.R.R.R.R.R.R.R.",
"R.R.R.R.R.R.R.R.R.R.R.R.R.R.R.R.R.R.R.R.R.8 p p p c 8 R.R.R.R.R.R.R.R.R.R.R.R.R.R.R.R.R.R.R.R.R.",
"R.R.R.R.R.R.R.R.R.R.R.R.R.R.R.R.R.R.R.R.R.R.R.w w R.R.R.R.R.R.R.R.R.R.R.R.R.R.R.R.R.R.R.R.R.R.R.",
"R.R.R.R.R.R.R.R.R.R.R.R.R.R.R.R.R.R.R.R.R.R.R.R.R.R.R.R.R.R.R.R.R.R.R.R.R.R.R.R.R.R.R.R.R.R.R.R.",
"R.R.R.R.R.R.R.R.R.R.R.R.R.R.R.R.R.R.R.R.R.R.R.R.R.R.R.R.R.R.R.R.R.R.R.R.R.R.R.R.R.R.R.R.R.R.R.R."
};
