/* XPM */
static char *komodo24_ide[] = {
/* columns rows colors chars-per-pixel */
"24 24 179 2 ",
"   c #D79E0E",
".  c #D99B11",
"X  c #DDAE05",
"o  c #DAA00E",
"O  c #DFA60D",
"+  c #DBA311",
"@  c #DAAC14",
"#  c #DEA919",
"$  c #E0AE08",
"%  c #E6A90F",
"&  c #E3AC0C",
"*  c #ECAE0F",
"=  c #E8B507",
"-  c #E6B208",
";  c #E9B00C",
":  c #EAB00D",
">  c #F2BE07",
",  c #F5BA0B",
"<  c #F1BC0B",
"1  c #FCBB0F",
"2  c #FDBF0D",
"3  c #FDBC0F",
"4  c #FDBE0E",
"5  c #E7AE13",
"6  c #E3AD16",
"7  c #EAA912",
"8  c #EDAD10",
"9  c #EBBA1F",
"0  c #F0B010",
"q  c #F1B010",
"w  c #F5B310",
"e  c #F5B013",
"r  c #F6B411",
"t  c #FAB711",
"y  c #FBB612",
"u  c #FDB712",
"i  c #FCB613",
"p  c #F8B114",
"a  c #FCB514",
"s  c #FBB910",
"d  c #FBB811",
"f  c #FCB910",
"g  c #FCB811",
"h  c #FDB911",
"j  c #FDBA10",
"k  c #F0B41C",
"l  c #FDBD19",
"z  c #DAA622",
"x  c #E6BC2F",
"c  c #FAC705",
"v  c #FCC905",
"b  c #FDC905",
"n  c #FECA05",
"m  c #FFCB05",
"M  c #FFC906",
"N  c #FFC807",
"B  c #FFCA06",
"V  c #F7C009",
"C  c #F4C00F",
"Z  c #F8C009",
"A  c #FEC10B",
"S  c #FEC30A",
"D  c #FDC409",
"F  c #FEC509",
"G  c #FEC608",
"H  c #FEC00D",
"J  c #FEC20F",
"K  c #FBC809",
"L  c #F1C216",
"P  c #FBC010",
"I  c #FEC216",
"U  c #FEC416",
"Y  c #FFCC11",
"T  c #FFCF17",
"R  c #F6C419",
"E  c #FEC81F",
"W  c #F5C921",
"Q  c #FCCF20",
"!  c #F8C925",
"~  c #FACB2E",
"^  c #FCCF35",
"/  c #FDC73F",
"(  c #F0C93B",
")  c #E5BF5C",
"_  c #E4BE5D",
"`  c #E7C341",
"'  c #EAC541",
"]  c #EFCA44",
"[  c #EFCB4A",
"{  c #F1CB40",
"}  c #F0CC42",
"|  c #FED145",
" . c #FFD844",
".. c #FFDA4C",
"X. c #E8C459",
"o. c #EFC65B",
"O. c #F4D15A",
"+. c #F4D35D",
"@. c #FFDB5B",
"#. c #E8CB67",
"$. c #F1CC69",
"%. c #F0D46B",
"&. c #E8C672",
"*. c #F7D574",
"=. c #F4D972",
"-. c #F2D875",
";. c #FEDE71",
":. c #F3DA7E",
">. c #FDDC7B",
",. c #FFE068",
"<. c #FFE47D",
"1. c #EED781",
"2. c #EED48D",
"3. c #F3DB80",
"4. c #F5DC83",
"5. c #F3DB85",
"6. c #F4DA87",
"7. c #FEDE83",
"8. c #FDDE84",
"9. c #F0DB8E",
"0. c #EDD490",
"q. c #EED691",
"w. c #EFDB93",
"e. c #EEDA96",
"r. c #F2DC9D",
"t. c #FFE687",
"y. c #FFE58B",
"u. c #FFE78A",
"i. c #F4E094",
"p. c #FEE492",
"a. c #FFE692",
"s. c #FBE596",
"d. c #F3E19A",
"f. c #F5E29B",
"g. c #FEE49A",
"h. c #FBE89E",
"j. c #F7E0A0",
"k. c #F6E5A2",
"l. c #F2E1A6",
"z. c #FFECA2",
"x. c #FFECA4",
"c. c #FFEDA8",
"v. c #FFEDAA",
"b. c #F9E9AD",
"n. c #F8E7B7",
"m. c #FEEEB5",
"M. c #FFECB7",
"N. c #FFEDB7",
"B. c #F5E7BC",
"V. c #FDEDBA",
"C. c #F9EFC5",
"Z. c #FCF0C6",
"A. c #FBF1CD",
"S. c #FEF2CE",
"D. c #FFF3D2",
"F. c #FFF6D7",
"G. c #F9F1D8",
"H. c #F9F2DB",
"J. c #FCF5DC",
"K. c #FCF5DE",
"L. c #FCF6DE",
"P. c #FFF6DE",
"I. c #FBF7E6",
"U. c #FCF7EA",
"Y. c #FCF7EB",
"T. c #FCF8EA",
"R. c #FEFAEB",
"E. c #FCF8EC",
"W. c #FEFAED",
"Q. c #FCF9EF",
"!. c #FDF9F0",
"~. c #FDF9F1",
"^. c #FEFBF1",
"/. c #FEFCF6",
"(. c #FEFDF9",
"). c #FFFEFC",
"_. c #FFFEFD",
"`. c white",
"'. c None",
/* pixels */
"'.'.'.'.'.'.'.'.'.'.'.'.'.'.'.'.'.'.'.'.'.'.'.'.",
"'.'.'.'.'.'.'.'.'.'.'.v '.'.'.'.'.'.'.'.'.'.'.'.",
"'.'.'.'.'.'.'.'.'.v m m m v '.'.'.'.'.'.'.'.'.'.",
"'.'.'.'.'.'.'.v m m m m m m v v '.'.'.'.'.'.'.'.",
"'.'.'.'.'.'.v m m v v v m m m m v '.'.'.'.'.'.'.",
"'.'.'.'.v v m m ..c.c.x.c.x. .m v v v '.'.'.'.'.",
"'.'.v v v m m u.u.W %.d.k.i.Z.h.Y v m m v '.'.'.",
"'.'.v v m m ,.<.} W._._.L.-.L.d.t.Q m m m '.'.'.",
"'.'.v N v Y H.L W._._._.W.:.b.q.:.-.N v m '.'.'.",
"'.'.N v v @.m.` _._._./.w.X ( 5.] ( +.v N '.'.'.",
"'.'.v N N y.Z.' _._._.#.Y.} v W 6.R s., N '.'.'.",
"'.'.F N F p._.x _._._.@ O.l.L F ~ S.^ = N '.'.'.",
"'.'.N F F ;._.e.V._./.B.p.> - D F 4 X , F '.'.'.",
"'.'.F F F Q ~._.6._._._._.x D D F F | F F '.'.'.",
"'.'.F 4 4 P >._./.H._.H.H.2.4 4 F U m., F '.'.'.",
"'.'.F j F D._._.W._._._.r.X.- 4 P V.8.% 4 '.'.'.",
"'.'.P F j g._.W.Y.2._._._.n.*.8.I.S.5 % 4 '.'.'.",
"'.'.j j j j 5 2.Y.  $./._._._._.j.@ % 4 4 '.'.'.",
"'.'.8 j j j l / $.  j k X.&._ z   % 4 j 8 '.'.'.",
"'.'.'.'.w y j j w e j j y 8 8 w y y w '.'.'.'.'.",
"'.'.'.'.'.'.y y y y y j y y y y y '.'.'.'.'.'.'.",
"'.'.'.'.'.'.'.8 a a a y y y y 8 '.'.'.'.'.'.'.'.",
"'.'.'.'.'.'.'.'.'.w a a a y '.'.'.'.'.'.'.'.'.'.",
"'.'.'.'.'.'.'.'.'.'.. a . '.'.'.'.'.'.'.'.'.'.'."
};
