/* XPM */
static char *komodo32_ide[] = {
/* columns rows colors chars-per-pixel */
"32 32 133 2 ",
"   c #D79F0E",
".  c #D99F0F",
"X  c #D79E11",
"o  c #DB9D11",
"O  c #D7A10D",
"+  c #DCA10F",
"@  c #DFAD08",
"#  c #DEB005",
"$  c #E3AB0D",
"%  c #EAAE0F",
"&  c #E3B505",
"*  c #EDB907",
"=  c #E1B50D",
"-  c #F5BF07",
";  c #F5B70E",
":  c #F5BD0A",
">  c #FDBD0E",
",  c #EBAB11",
"<  c #F5AF13",
"1  c #E1B413",
"2  c #E1B91F",
"3  c #F6B411",
"4  c #FCB613",
"5  c #FDB911",
"6  c #F1B919",
"7  c #DCAB2F",
"8  c #DDB327",
"9  c #DDB12F",
"0  c #DFBA2B",
"q  c #DEAF37",
"w  c #DFAF3B",
"e  c #E0AC2E",
"r  c #E3BB25",
"t  c #ECBA26",
"y  c #EAB72F",
"u  c #E4BE2B",
"i  c #E9BE28",
"p  c #E6BF3A",
"a  c #EABD3E",
"s  c #F6C107",
"d  c #FFC707",
"f  c #FFCA05",
"g  c #F6C208",
"h  c #FEC30A",
"j  c #FFCB0B",
"k  c #F3C211",
"l  c #FDC214",
"z  c #FFC911",
"x  c #F3C119",
"c  c #FEC61C",
"v  c #FECA19",
"b  c #FFD01C",
"n  c #ECC12A",
"m  c #F2C322",
"M  c #FBCA26",
"N  c #FDCB2E",
"B  c #FFD42E",
"V  c #F3CA31",
"C  c #F9C43C",
"Z  c #F5CC3B",
"A  c #F9CD3A",
"S  c #FFD434",
"D  c #FAD23A",
"F  c #E2BF44",
"G  c #E2B94E",
"H  c #E6C141",
"J  c #EFCA45",
"K  c #E6C348",
"L  c #EFCB4E",
"P  c #F8C340",
"I  c #F4CE44",
"U  c #FECE4C",
"Y  c #FAD444",
"T  c #F8D048",
"R  c #FDD84C",
"E  c #EFCE51",
"W  c #EACD5E",
"Q  c #F0C456",
"!  c #F1CA5B",
"~  c #F5D152",
"^  c #FDD654",
"/  c #F6D55C",
"(  c #FED859",
")  c #E7C964",
"_  c #E9C866",
"`  c #EFCE68",
"'  c #F4D563",
"]  c #FAD160",
"[  c #FDDC64",
"{  c #F2D66E",
"}  c #FBDA6C",
"|  c #E9C974",
" . c #EECF7E",
".. c #F0D774",
"X. c #F7D973",
"o. c #FED871",
"O. c #F4DA7D",
"+. c #EACE82",
"@. c #ECD283",
"#. c #F4D88B",
"$. c #F9DA89",
"%. c #F2DE96",
"&. c #F0DE9A",
"*. c #FFE481",
"=. c #F9E290",
"-. c #FFE996",
";. c #F4E19B",
":. c #FCE39A",
">. c #F1DCA8",
",. c #F2E1A5",
"<. c #FEE7A5",
"1. c #FEEAA6",
"2. c #F4E4AA",
"3. c #FAE5AB",
"4. c #FFEAAD",
"5. c #F6E7B5",
"6. c #FFEDB4",
"7. c #FBEDBC",
"8. c #FFF2BF",
"9. c #F5E9C2",
"0. c #F9EDCB",
"q. c #FFF1C7",
"w. c #FCF1CC",
"e. c #F8EFD3",
"r. c #FEF5D4",
"t. c #FBF4DC",
"y. c #FFF8DD",
"u. c #FBF6E4",
"i. c #FFF9E6",
"p. c #FDF9ED",
"a. c #FDFBF3",
"s. c #FFFFFF",
"d. c None",
/* pixels */
"d.d.d.d.d.d.d.d.d.d.d.d.d.d.d.d.d.d.d.d.d.d.d.d.d.d.d.d.d.d.d.d.",
"d.d.d.d.d.d.d.d.d.d.d.d.d.d.d.f d.d.d.d.d.d.d.d.d.d.d.d.d.d.d.d.",
"d.d.d.d.d.d.d.d.d.d.d.d.d.f f f f f d.d.d.d.d.d.d.d.d.d.d.d.d.d.",
"d.d.d.d.d.d.d.d.d.d.d.f f f f f f f f f d.d.d.d.d.d.d.d.d.d.d.d.",
"d.d.d.d.d.d.d.d.d.d.f f f f f f f f f f f d.d.d.d.d.d.d.d.d.d.d.",
"d.d.d.d.d.d.d.d.f f f f f f f f f f f f f f f d.d.d.d.d.d.d.d.d.",
"d.d.d.d.d.d.f f f f f j [ 8.y.r.r.r.-.B f f f f f d.d.d.d.d.d.d.",
"d.d.d.d.d.f f f f f B r.-.V # 1 n n W r.1.b f f f f d.d.d.d.d.d.",
"d.d.d.f f f f f f S y.D @ $.r.s.s.s.s.r.&.5.R f f f f f d.d.d.d.",
"d.d.d.f f f f f j y.D n r.s.s.s.s.&.0 u.u.} ..' f f f f d.d.d.d.",
"d.d.d.f d f d d *.6.# 7.s.s.s.s.s.p.W p.0 e./ ' Y f f f d.d.d.d.",
"d.d.d.f f d f d u.' n s.s.s.s.s.t.F n / 5.^ 2.Z =.g f f d.d.d.d.",
"d.d.d.f d d f S s.K ~ s.s.s.s.e.s.&.s s Z ;.k n } J d d d.d.d.d.",
"d.d.d.f d d f [ s.) T s.s.s.s.@.&.9.J z d M 2.v X.X.g d d.d.d.d.",
"d.d.d.h h d d [ s.,.6 s.s.s.s.F n e.0.m h d N 0.r.m * d d.d.d.d.",
"d.d.d.h h d h ( s.s.r w.s.s.p.8 x h H 1 g d h I n # d d d.d.d.d.",
"d.d.d.h h h h M s.s.2.} s.s.s.s.s.7.h : h h h h : > h h d.d.d.d.",
"d.d.d.h h h h h 5.s.s.` u.s.s.s.s.u.= h h h h h h ^ h h d.d.d.d.",
"d.d.d.h h h h h c 7.s.a.:.s.s.s.9.u._ l h h h h c q.: h d.d.d.d.",
"d.d.d.> h > > N <.a.s.s.a.a.s.s.+.s.9.6 > > > h 4.<.@ > d.d.d.d.",
"d.d.d.> > > > p.s.s.s.a.e.s.s.s.a.! 9 $ > > 5 :.s.a $ h d.d.d.d.",
"d.d.d.> > > > :.s.s.s.s.| t.s.s.s.s.3.] U o.r.s.#.O ; > d.d.d.d.",
"d.d.d.5 > > > > y G | s.+.t 0.s.s.s.s.s.s.s.s.+.O % > > d.d.d.d.",
"d.d.d.5 5 > 4 5 > C $.p.q , 5  .u.s.s.s.a.,.q   % 5 5 3 d.d.d.d.",
"d.d.d.d.O 5 5 5 5 5 P Q X 4 5 5 % e w 7 X . $ 4 5 5 O d.d.d.d.d.",
"d.d.d.d.d.d., 5 5 4 4 4 < 5 4 5 4 4 4 ; 4 4 4 5 , d.d.d.d.d.d.d.",
"d.d.d.d.d.d.d.d.4 4 4 4 4 5 4 5 4 4 4 4 4 5 4 d.d.d.d.d.d.d.d.d.",
"d.d.d.d.d.d.d.d.d.X 4 4 4 4 4 4 4 4 4 4 4 . d.d.d.d.d.d.d.d.d.d.",
"d.d.d.d.d.d.d.d.d.d.d., 4 4 4 4 4 4 4 , d.d.d.d.d.d.d.d.d.d.d.d.",
"d.d.d.d.d.d.d.d.d.d.d.d.d.< 4 4 4 < d.d.d.d.d.d.d.d.d.d.d.d.d.d.",
"d.d.d.d.d.d.d.d.d.d.d.d.d.d.X < X d.d.d.d.d.d.d.d.d.d.d.d.d.d.d.",
"d.d.d.d.d.d.d.d.d.d.d.d.d.d.d.d.d.d.d.d.d.d.d.d.d.d.d.d.d.d.d.d."
};
