/* XPM */
static char *spam[] = {
/* columns rows colors chars-per-pixel */
"16 16 2 1",
"  c #CE2727",
". c None",
/* pixels */
"................",
"................",
".....      .....",
"....        ....",
"...          ...",
"..            ..",
"..            ..",
"..            ..",
"..            ..",
"..            ..",
"..            ..",
"...          ...",
"....        ....",
".....      .....",
"................",
"................"
};
