<?xml version="1.0" encoding="UTF-8" standalone="no"?>
<svg
   xmlns:dc="http://purl.org/dc/elements/1.1/"
   xmlns:cc="http://creativecommons.org/ns#"
   xmlns:rdf="http://www.w3.org/1999/02/22-rdf-syntax-ns#"
   xmlns:svg="http://www.w3.org/2000/svg"
   xmlns="http://www.w3.org/2000/svg"
   id="svg11"
   version="1.1"
   height="11.2pt"
   width="11.2pt">
  <metadata
     id="metadata15">
    <rdf:RDF>
      <cc:Work
         rdf:about="">
        <dc:format>image/svg+xml</dc:format>
        <dc:type
           rdf:resource="http://purl.org/dc/dcmitype/StillImage" />
        <dc:title></dc:title>
      </cc:Work>
    </rdf:RDF>
  </metadata>
  <defs
     id="defs2" />
  <g
     id="layer0">
    <g
       fill="none"
       transform="translate(-3.51695, -3.51695)"
       id="icomoon-ignore">
      <path
         d="M0 0L0 0"
         stroke-miterlimit="2.00000000000"
         stroke-linejoin="miter"
         stroke-linecap="butt"
         stroke-width="1.00000000000"
         stroke="#449fdb"
         fill="#000000"
         transform="translate(2.5, 2.5)"
         id="line5" />
    </g>
    <path
       transform="translate(0.983051, 0.983051)"
       fill="#5438dc"
       d="M9.99999 0L2.00025 0C0.9 0 0 0.9 0 2.00025L0 9.99974C0 11.1007 0.9 12 2.00025 12L9.99974 12C11.1 12 12 11.1007 12 9.99974L12 2.00025C12.0002 0.9 11.1002 -6.66134e-16 9.99999 0Z"
       id="path7" />
    <g
       id="text4140"
       style="font-size:11.98661327px;font-family:ComicSans;fill:#ffffff;stroke-width:0.99888444"
       transform="scale(1.12047,0.89248263)"
       aria-label="p">
      <path
         id="path3710"
         style="stroke-width:0.99888444"
         d="M 4.5974213,8.9004979 V 12.377084 H 3.5146462 V 3.3285956 H 4.5974213 V 4.3235782 Q 4.936886,3.7382943 5.4519357,3.4573581 5.9728384,3.170569 6.6927375,3.170569 q 1.1939791,0 1.9372896,0.9481598 0.7491633,0.9481599 0.7491633,2.4933092 0,1.5451494 -0.7491633,2.4933092 -0.7433105,0.9481598 -1.9372896,0.9481598 -0.7198991,0 -1.2408018,-0.2809362 Q 4.936886,9.4857817 4.5974213,8.9004979 Z M 8.2612982,6.612038 q 0,-1.1881262 -0.4916384,-1.8612026 -0.4857856,-0.6789293 -1.3403,-0.6789293 -0.8545144,0 -1.3461529,0.6789293 -0.4857856,0.6730764 -0.4857856,1.8612026 0,1.1881262 0.4857856,1.8670555 0.4916385,0.6730764 1.3461529,0.6730764 0.8545144,0 1.3403,-0.6730764 Q 8.2612982,7.8001642 8.2612982,6.612038 Z" />
    </g>
  </g>
</svg>
