<?xml version="1.0" encoding="UTF-8" standalone="no"?>
<!-- Generated by IcoMoon.io -->

<svg
   xmlns:dc="http://purl.org/dc/elements/1.1/"
   xmlns:cc="http://creativecommons.org/ns#"
   xmlns:rdf="http://www.w3.org/1999/02/22-rdf-syntax-ns#"
   xmlns:svg="http://www.w3.org/2000/svg"
   xmlns="http://www.w3.org/2000/svg"
   xmlns:sodipodi="http://sodipodi.sourceforge.net/DTD/sodipodi-0.dtd"
   xmlns:inkscape="http://www.inkscape.org/namespaces/inkscape"
   version="1.1"
   width="12"
   height="12"
   viewBox="0 0 12 12"
   id="svg2"
   inkscape:version="0.48.5 r10040"
   sodipodi:docname="branch.svg">
  <metadata
     id="metadata14">
    <rdf:RDF>
      <cc:Work
         rdf:about="">
        <dc:format>image/svg+xml</dc:format>
        <dc:type
           rdf:resource="http://purl.org/dc/dcmitype/StillImage" />
      </cc:Work>
    </rdf:RDF>
  </metadata>
  <defs
     id="defs12" />
  <sodipodi:namedview
     pagecolor="#ffffff"
     bordercolor="#666666"
     borderopacity="1"
     objecttolerance="10"
     gridtolerance="10"
     guidetolerance="10"
     inkscape:pageopacity="0"
     inkscape:pageshadow="2"
     inkscape:window-width="959"
     inkscape:window-height="1021"
     id="namedview10"
     showgrid="false"
     inkscape:zoom="67.75"
     inkscape:cx="3.4907749"
     inkscape:cy="6"
     inkscape:window-x="0"
     inkscape:window-y="29"
     inkscape:window-maximized="0"
     inkscape:current-layer="svg2">
    <inkscape:grid
       type="xygrid"
       id="grid2984" />
  </sodipodi:namedview>
  <g
     id="g4">
    <line
       stroke-width="1"
       stroke="#449FDB"
       id="line6" />
  </g>
  <path
     d="M 9,8.1364861 9,7.2199519 C 9,6.2648163 8.9551531,5.5 8,5.5 7.5912143,5.5 6.9929607,5.1440031 7,4.7352855 l 0.01476,-0.8570117 C 7.5888417,3.6724 8.004556,3.129012 8.004556,2.4846667 8.004556,1.6661204 7.3384234,1 6.5198621,1 5.7013009,1 5.0351682,1.6661204 5.0351682,2.4846667 c 0,0.6443453 0.4147246,1.1887231 0.989796,1.3936071 l -0.01476,0.8580015 C 6.003173,5.144993 5.4087857,5.5 5,5.5 4.044847,5.5 4.0102041,6.2851045 4.0102041,7.2402401 l 0,0.9155444 C 3.4361225,8.3616583 3.0204082,8.9050463 3.0204082,9.5493916 c 0,0.8185464 0.6661326,1.4846674 1.4846938,1.4846674 0.8185613,0 1.484694,-0.666121 1.484694,-1.4846674 C 5.989796,8.9050463 5.5750714,8.3606685 5,8.1557845 L 5,7.2402401 C 5,6.8314618 4.9912143,6.5 5.4,6.5 5.885,6.5 6.190347,6.2674615 6.505102,5.944794 6.8198571,6.2664718 7.1150001,6.5 7.6,6.5 c 0.4087858,0 0.410204,0.3121634 0.410204,0.7209417 l 0,0.9155444 C 7.4361224,8.3423599 7.0204081,8.8857479 7.0204081,9.5300932 c 0,0.8185458 0.6661327,1.4846668 1.484694,1.4846668 0.8185611,0 1.4846938,-0.666121 1.4846938,-1.4846668 C 9.9897959,8.8857479 9.5750714,8.3413701 9,8.1364861 z M 4.505102,10.044281 c -0.2731836,0 -0.4948979,-0.2217107 -0.4948979,-0.4948894 0,-0.2731787 0.2217143,-0.4948889 0.4948979,-0.4948889 C 4.7782857,9.0545027 5,9.2762129 5,9.5493916 5,9.8225703 4.7782857,10.044281 4.505102,10.044281 z M 6.5198621,1.9897778 c 0.2731837,0 0.494898,0.2217102 0.494898,0.4948889 0,0.2731786 -0.2217143,0.4948889 -0.494898,0.4948889 -0.2731836,0 -0.4948979,-0.2217103 -0.4948979,-0.4948889 0,-0.2731787 0.2217143,-0.4948889 0.4948979,-0.4948889 z m 1.98524,8.0352042 c -0.2731838,0 -0.4948981,-0.2217101 -0.4948981,-0.4948888 0,-0.2731787 0.2217143,-0.4948889 0.4948981,-0.4948889 C 8.7782857,9.0352043 9,9.2569145 9,9.5300932 9,9.8032719 8.7782857,10.024982 8.5051021,10.024982 z"
     id="path8"
     style="fill:#bbbb00;fill-opacity:1"
     inkscape:connector-curvature="0"
     sodipodi:nodetypes="cssscssscssscssscsscsscssscsssssssssssssss" />
</svg>
