<?xml version="1.0" encoding="UTF-8" standalone="no"?>
<!-- Generated by IcoMoon.io -->

<svg
   xmlns:dc="http://purl.org/dc/elements/1.1/"
   xmlns:cc="http://creativecommons.org/ns#"
   xmlns:rdf="http://www.w3.org/1999/02/22-rdf-syntax-ns#"
   xmlns:svg="http://www.w3.org/2000/svg"
   xmlns="http://www.w3.org/2000/svg"
   xmlns:sodipodi="http://sodipodi.sourceforge.net/DTD/sodipodi-0.dtd"
   xmlns:inkscape="http://www.inkscape.org/namespaces/inkscape"
   sodipodi:docname="conflict.svg"
   inkscape:version="0.48.5 r10040"
   id="svg2"
   viewBox="0 0 12 12"
   height="12"
   width="12"
   version="1.1">
  <metadata
     id="metadata14">
    <rdf:RDF>
      <cc:Work
         rdf:about="">
        <dc:format>image/svg+xml</dc:format>
        <dc:type
           rdf:resource="http://purl.org/dc/dcmitype/StillImage" />
      </cc:Work>
    </rdf:RDF>
  </metadata>
  <defs
     id="defs12" />
  <sodipodi:namedview
     pagecolor="#ffffff"
     bordercolor="#666666"
     borderopacity="1"
     objecttolerance="10"
     gridtolerance="10"
     guidetolerance="10"
     inkscape:pageopacity="0"
     inkscape:pageshadow="2"
     inkscape:window-width="959"
     inkscape:window-height="1021"
     id="namedview10"
     showgrid="false"
     inkscape:zoom="67.75"
     inkscape:cx="3.4907749"
     inkscape:cy="5.8819188"
     inkscape:window-x="0"
     inkscape:window-y="29"
     inkscape:window-maximized="0"
     inkscape:current-layer="svg2"
     inkscape:snap-global="false">
    <inkscape:grid
       type="xygrid"
       id="grid2984" />
  </sodipodi:namedview>
  <g
     id="g4">
    <line
       stroke-width="1"
       stroke="#449FDB"
       id="line6" />
  </g>
  <path
     d="M 10.667238,7.7966606 7.6595303,2.1619396 C 7.2647432,1.4220037 6.6603526,1 6.0010175,1 5.3416823,1 4.7383092,1.4231473 4.3425046,2.1607959 L 1.3347966,7.7966606 C 0.93492205,8.5457456 0.89116987,9.3428636 1.2147325,9.9867333 1.5382952,10.630603 2.170158,11 2.9475223,11 l 6.1049554,0 C 9.8298419,11 10.461705,10.630603 10.785268,9.9867333 11.10883,9.3428636 11.065078,8.5446019 10.665203,7.7955168 z"
     id="path8"
     style="fill:#f44800;fill-opacity:1"
     inkscape:connector-curvature="0"
     sodipodi:nodetypes="ccsccsssscc" />
  <g
     style="font-size:12px;font-style:normal;font-variant:normal;font-weight:normal;font-stretch:normal;line-height:125%;letter-spacing:0px;word-spacing:0px;fill:#ffffff;fill-opacity:1;stroke:none;font-family:Ubuntu Mono;-inkscape-font-specification:Ubuntu Mono"
     id="text3020">
    <path
       d="m 6.7300283,4.4672946 c -3.8e-6,0.2848187 -0.00792,0.5419416 -0.023734,0.7713711 -0.00792,0.2215259 -0.023738,0.4390917 -0.047469,0.6526986 -0.015826,0.2057021 -0.039561,0.4114007 -0.071203,0.6170969 -0.023738,0.2057021 -0.051428,0.4351352 -0.083071,0.6883004 l -0.9742968,0 C 5.4906943,6.9435964 5.4550926,6.7141633 5.4234485,6.5084612 5.3997117,6.2948543 5.3759772,6.0851992 5.3522451,5.8794971 5.3285082,5.6738021 5.3087302,5.4601916 5.2929088,5.2386657 5.2849934,5.0092362 5.2810416,4.7521133 5.2810416,4.4672946 l 0,-1.9462286 1.4489867,0 0,1.9462286 M 6.9905165,9.0243177 C 6.9905126,9.3328661 6.8876631,9.5741664 6.6819681,9.7482198 6.4841772,9.922272 6.2586998,10.009299 6.005535,10.009299 5.7523643,10.009299 5.5229311,9.9222765 5.3172346,9.7482198 5.1194451,9.5741664 5.0205515,9.3328661 5.0205534,9.0243177 5.0205515,8.7236811 5.1194455,8.4863362 5.3172346,8.3122828 5.5229311,8.1382307 5.7523643,8.0512046 6.005535,8.0512034 c 0.2531648,1.2e-6 0.4786422,0.087034 0.6764331,0.2610794 0.2056951,0.1740534 0.3085445,0.4113983 0.3085484,0.7120349"
       style="font-size:10px;font-weight:bold;fill:#ffffff;-inkscape-font-specification:Ubuntu Mono Bold"
       id="path3025"
       inkscape:connector-curvature="0"
       sodipodi:nodetypes="cccccccccscccccscccccc" />
  </g>
</svg>
