<?xml version="1.0" encoding="UTF-8" standalone="no"?>
<!-- Generated by IcoMoon.io -->

<svg
   xmlns:dc="http://purl.org/dc/elements/1.1/"
   xmlns:cc="http://creativecommons.org/ns#"
   xmlns:rdf="http://www.w3.org/1999/02/22-rdf-syntax-ns#"
   xmlns:svg="http://www.w3.org/2000/svg"
   xmlns="http://www.w3.org/2000/svg"
   xmlns:sodipodi="http://sodipodi.sourceforge.net/DTD/sodipodi-0.dtd"
   xmlns:inkscape="http://www.inkscape.org/namespaces/inkscape"
   sodipodi:docname="delete.svg"
   inkscape:version="0.48.5 r10040"
   id="svg2"
   viewBox="0 0 12 12"
   height="12"
   width="12"
   version="1.1">
  <metadata
     id="metadata14">
    <rdf:RDF>
      <cc:Work
         rdf:about="">
        <dc:format>image/svg+xml</dc:format>
        <dc:type
           rdf:resource="http://purl.org/dc/dcmitype/StillImage" />
      </cc:Work>
    </rdf:RDF>
  </metadata>
  <defs
     id="defs12" />
  <sodipodi:namedview
     pagecolor="#ffffff"
     bordercolor="#666666"
     borderopacity="1"
     objecttolerance="10"
     gridtolerance="10"
     guidetolerance="10"
     inkscape:pageopacity="0"
     inkscape:pageshadow="2"
     inkscape:window-width="959"
     inkscape:window-height="1021"
     id="namedview10"
     showgrid="true"
     inkscape:zoom="67.75"
     inkscape:cx="6.0590406"
     inkscape:cy="6"
     inkscape:window-x="0"
     inkscape:window-y="29"
     inkscape:window-maximized="0"
     inkscape:current-layer="svg2"
     inkscape:snap-global="false">
    <inkscape:grid
       type="xygrid"
       id="grid2984" />
  </sodipodi:namedview>
  <g
     id="g4">
    <line
       stroke-width="1"
       stroke="#449FDB"
       id="line6" />
  </g>
  <path
     d="m 9.6090326,2.3909837 c -0.5199566,-0.5213116 -1.3652195,-0.5213116 -1.8851763,0 L 6,4.1149118 4.2761437,2.3909837 c -0.5199568,-0.5213116 -1.3652196,-0.5213116 -1.8851763,0 -0.5199566,0.5213116 -0.5212899,1.3652764 0,1.8852547 L 4.1134905,6.0001667 2.3909674,7.7240948 c -0.5212899,0.5213116 -0.5212899,1.3652765 0,1.8852548 C 2.6509458,9.870672 2.9922507,10 3.3335556,10 3.6748605,10 4.0161653,9.8693387 4.2761437,9.6093496 L 6,7.8854214 7.7238563,9.6093496 C 7.9838347,9.870672 8.3251396,10 8.6664445,10 9.0077494,10 9.3490543,9.8693387 9.6090326,9.6093496 c 0.5212894,-0.5213116 0.5212894,-1.3652765 0,-1.8852548 L 7.8865094,6.0001667 9.6090326,4.2762384 c 0.5212894,-0.5213116 0.5212894,-1.3652764 0,-1.8852547 z"
     id="path8"
     style="fill:#ef2929;fill-opacity:1"
     inkscape:connector-curvature="0" />
</svg>
