<?xml version="1.0" encoding="UTF-8" standalone="no"?>
<!-- Generated by IcoMoon.io -->

<svg
   xmlns:dc="http://purl.org/dc/elements/1.1/"
   xmlns:cc="http://creativecommons.org/ns#"
   xmlns:rdf="http://www.w3.org/1999/02/22-rdf-syntax-ns#"
   xmlns:svg="http://www.w3.org/2000/svg"
   xmlns="http://www.w3.org/2000/svg"
   xmlns:sodipodi="http://sodipodi.sourceforge.net/DTD/sodipodi-0.dtd"
   xmlns:inkscape="http://www.inkscape.org/namespaces/inkscape"
   version="1.1"
   width="12"
   height="12"
   viewBox="0 0 12 12"
   id="svg2"
   inkscape:version="0.48.5 r10040"
   sodipodi:docname="edit.svg">
  <metadata
     id="metadata14">
    <rdf:RDF>
      <cc:Work
         rdf:about="">
        <dc:format>image/svg+xml</dc:format>
        <dc:type
           rdf:resource="http://purl.org/dc/dcmitype/StillImage" />
      </cc:Work>
    </rdf:RDF>
  </metadata>
  <defs
     id="defs12" />
  <sodipodi:namedview
     pagecolor="#ffffff"
     bordercolor="#666666"
     borderopacity="1"
     objecttolerance="10"
     gridtolerance="10"
     guidetolerance="10"
     inkscape:pageopacity="0"
     inkscape:pageshadow="2"
     inkscape:window-width="959"
     inkscape:window-height="1021"
     id="namedview10"
     showgrid="true"
     inkscape:zoom="67.75"
     inkscape:cx="6.1180812"
     inkscape:cy="5.8819188"
     inkscape:window-x="0"
     inkscape:window-y="29"
     inkscape:window-maximized="0"
     inkscape:current-layer="svg2">
    <inkscape:grid
       type="xygrid"
       id="grid2984" />
  </sodipodi:namedview>
  <g
     id="g4">
    <line
       stroke-width="1"
       stroke="#449FDB"
       id="line6" />
  </g>
  <path
     d="M 10.761388,3.3416486 8.6572668,1.2386117 C 8.4989154,1.0802603 8.2895879,1 8.0824295,1 7.8752712,1 7.6670282,1.0791757 7.5075922,1.2386117 L 1.5748373,7.1713666 C 1.4164859,7.329718 1.2722343,7.5661605 1.1681128,7.8156183 1.0639914,8.0672451 1,8.335141 1,8.5596529 V 11 h 2.4403471 c 0.224512,0 0.4924077,-0.06399 0.7429501,-0.168113 0.2505423,-0.104126 0.4859002,-0.248373 0.6453362,-0.406724 L 10.761388,4.4924079 C 10.91974,4.3340564 11,4.1247289 11,3.9175705 11,3.7104122 10.920824,3.5021692 10.761388,3.3427332 z M 2.5010846,7.7787418 6.9989154,3.2809111 7.6670282,3.9490239 3.1691974,8.4468546 2.5010846,7.7787418 z M 3.4403471,9.9143167 H 2.626898 L 2.0845987,9.3720174 v -0.813449 c 0,-0.041215 0.017354,-0.1648591 0.085683,-0.3275489 0.00542,-0.010846 1.6095444,1.5932755 1.6095444,1.5932755 -0.1746202,0.072668 -0.2971799,0.090022 -0.3394792,0.090022 z M 4.2201736,9.4978308 3.5520607,8.829718 8.0498916,4.3318872 8.7180043,5 4.2201736,9.4978308 z M 9.1008677,4.6171366 7.3806941,2.8969632 8.0813449,2.1952278 9.8004338,3.9154013 9.0997831,4.6171366 z"
     id="path8"
     style="fill:#816647;fill-opacity:1"
     inkscape:connector-curvature="0" />
</svg>
