<?xml version="1.0" encoding="UTF-8" standalone="no"?>
<!-- Generated by IcoMoon.io -->

<svg
   xmlns:dc="http://purl.org/dc/elements/1.1/"
   xmlns:cc="http://creativecommons.org/ns#"
   xmlns:rdf="http://www.w3.org/1999/02/22-rdf-syntax-ns#"
   xmlns:svg="http://www.w3.org/2000/svg"
   xmlns="http://www.w3.org/2000/svg"
   xmlns:sodipodi="http://sodipodi.sourceforge.net/DTD/sodipodi-0.dtd"
   xmlns:inkscape="http://www.inkscape.org/namespaces/inkscape"
   version="1.1"
   width="12"
   height="12"
   viewBox="0 0 12 12"
   id="svg2"
   inkscape:version="0.48.5 r10040"
   sodipodi:docname="lock.svg">
  <metadata
     id="metadata14">
    <rdf:RDF>
      <cc:Work
         rdf:about="">
        <dc:format>image/svg+xml</dc:format>
        <dc:type
           rdf:resource="http://purl.org/dc/dcmitype/StillImage" />
      </cc:Work>
    </rdf:RDF>
  </metadata>
  <defs
     id="defs12" />
  <sodipodi:namedview
     pagecolor="#ffffff"
     bordercolor="#666666"
     borderopacity="1"
     objecttolerance="10"
     gridtolerance="10"
     guidetolerance="10"
     inkscape:pageopacity="0"
     inkscape:pageshadow="2"
     inkscape:window-width="959"
     inkscape:window-height="1022"
     id="namedview10"
     showgrid="false"
     inkscape:zoom="72.521739"
     inkscape:cx="4.75"
     inkscape:cy="6.75"
     inkscape:window-x="0"
     inkscape:window-y="29"
     inkscape:window-maximized="0"
     inkscape:current-layer="svg2">
    <inkscape:grid
       type="xygrid"
       id="grid2984" />
  </sodipodi:namedview>
  <g
     id="g4">
    <line
       stroke-width="1"
       stroke="#449FDB"
       id="line6" />
  </g>
  <path
     d="m 8.8571431,5.1764706 -0.5714285,0 0,-1.0588235 C 8.2857146,2.9497647 7.2605716,2 6.0000002,2 4.7394287,2 3.7142858,2.9508235 3.7142858,4.1176471 l 0,1.0588235 -0.5714286,0 C 2.5131429,5.1764706 2,5.6508235 2,6.2352941 L 2,9.9411765 C 2,10.525647 2.5131429,11 3.1428572,11 l 5.7142859,0 C 9.4868575,11 10,10.525647 10,9.9411765 L 10,6.2352941 C 10,5.6508235 9.4868575,5.1764706 8.8571431,5.1764706 z M 6.0000002,9.5695294 c -0.4102857,0 -0.7428572,-0.3070588 -0.7428572,-0.6871765 0,-0.3801176 0.3314286,-0.6882353 0.7428572,-0.6882353 0.4114286,0 0.7428571,0.3081177 0.7428571,0.6882353 0,0.3801177 -0.3314285,0.6871765 -0.7428571,0.6871765 z M 7.1428574,6 4.8571429,6 l 0,-1.8823529 c 0,-0.5844706 0.513143,-1.0588236 1.1428573,-1.0588236 0.6297143,0 1.1428572,0.474353 1.1428572,1.0588236 z"
     id="path8"
     style="fill:#72652f;fill-opacity:1"
     inkscape:connector-curvature="0"
     sodipodi:nodetypes="scssscsssssssssssssccsssc" />
</svg>
