<?xml version="1.0" encoding="UTF-8" standalone="no"?>
<!-- Generated by IcoMoon.io -->

<svg
   xmlns:dc="http://purl.org/dc/elements/1.1/"
   xmlns:cc="http://creativecommons.org/ns#"
   xmlns:rdf="http://www.w3.org/1999/02/22-rdf-syntax-ns#"
   xmlns:svg="http://www.w3.org/2000/svg"
   xmlns="http://www.w3.org/2000/svg"
   xmlns:sodipodi="http://sodipodi.sourceforge.net/DTD/sodipodi-0.dtd"
   xmlns:inkscape="http://www.inkscape.org/namespaces/inkscape"
   version="1.1"
   width="12"
   height="12"
   viewBox="0 0 12 12"
   id="svg2"
   inkscape:version="0.48.5 r10040"
   sodipodi:docname="sync.svg">
  <metadata
     id="metadata18">
    <rdf:RDF>
      <cc:Work
         rdf:about="">
        <dc:format>image/svg+xml</dc:format>
        <dc:type
           rdf:resource="http://purl.org/dc/dcmitype/StillImage" />
      </cc:Work>
    </rdf:RDF>
  </metadata>
  <defs
     id="defs16" />
  <sodipodi:namedview
     pagecolor="#ffffff"
     bordercolor="#666666"
     borderopacity="1"
     objecttolerance="10"
     gridtolerance="10"
     guidetolerance="10"
     inkscape:pageopacity="0"
     inkscape:pageshadow="2"
     inkscape:window-width="959"
     inkscape:window-height="1021"
     id="namedview14"
     showgrid="true"
     inkscape:zoom="67.75"
     inkscape:cx="6.0590406"
     inkscape:cy="6"
     inkscape:window-x="0"
     inkscape:window-y="29"
     inkscape:window-maximized="0"
     inkscape:current-layer="svg2">
    <inkscape:grid
       type="xygrid"
       id="grid2986" />
  </sodipodi:namedview>
  <g
     id="g4">
    <line
       stroke-width="1"
       stroke="#449FDB"
       id="line6" />
  </g>
  <path
     d="M4 8.092v-0.342c0-0.424 0.256-0.797 0.644-1.024-0.334-0.141-0.64-0.334-0.911-0.566-0.452 0.407-0.733 0.969-0.733 1.589v0.342c-0.58 0.208-1 0.757-1 1.408 0 0.827 0.673 1.5 1.5 1.5s1.5-0.673 1.5-1.5c0-0.651-0.419-1.201-1-1.408zM3.5 10c-0.276 0-0.5-0.224-0.5-0.5s0.224-0.5 0.5-0.5 0.5 0.224 0.5 0.5-0.224 0.5-0.5 0.5z"
     fill="#383838"
     id="path8"
     style="fill:#f57900;fill-opacity:1" />
  <path
     d="M8 3.907v0.176c0 0.493-0.268 0.926-0.673 1.18 0.332 0.137 0.64 0.323 0.911 0.55 0.468-0.439 0.761-1.051 0.761-1.73v-0.175c0.58-0.208 1-0.757 1-1.408 0-0.827-0.673-1.5-1.5-1.5s-1.5 0.673-1.5 1.5c0 0.651 0.419 1.201 1 1.408zM8.5 2c0.276 0 0.5 0.224 0.5 0.5s-0.224 0.5-0.5 0.5-0.5-0.224-0.5-0.5 0.224-0.5 0.5-0.5z"
     fill="#383838"
     id="path10"
     style="fill:#f57900;fill-opacity:1" />
  <path
     d="M 8.9671291,8.082 C 8.7621547,6.625 7.5113111,5.5 5.9995001,5.5 5.031621,5.5 4.223722,4.809 4.039745,3.896 4.599675,3.678 4.999625,3.136 4.999625,2.5 4.999625,1.673 4.3267092,1 3.4998125,1 2.6729159,1 2,1.673 2,2.5 2,3.163 2.4349456,3.72 3.0328709,3.918 3.2378453,5.375 4.4886889,6.5 6.0004999,6.5 6.968379,6.5 7.776278,7.191 7.960255,8.104 7.400325,8.322 7.000375,8.864 7.000375,9.5 c 0,0.827 0.6729158,1.5 1.4998125,1.5 C 9.3270841,11 10,10.327 10,9.5 10,8.837 9.5650544,8.28 8.9671291,8.082 z M 3.4998125,2 C 3.775778,2 3.99975,2.224 3.99975,2.5 3.99975,2.776 3.775778,3 3.4998125,3 3.223847,3 2.999875,2.776 2.999875,2.5 2.999875,2.224 3.223847,2 3.4998125,2 z m 4.9993751,8 C 8.2232221,10 7.9992501,9.776 7.9992501,9.5 c 0,-0.276 0.223972,-0.5 0.4999375,-0.5 0.2759655,0 0.4999375,0.224 0.4999375,0.5 0,0.276 -0.223972,0.5 -0.4999375,0.5 z"
     id="path12"
     style="fill:#cc0000"
     inkscape:connector-curvature="0" />
</svg>
